
<svg width="136px" height="126px" viewBox="0 0 136 126" version="1.1" xmlns="http://www.w3.org/2000/svg" xmlns:xlink="http://www.w3.org/1999/xlink">
    <!-- Generator: Sketch 46.2 (44496) - http://www.bohemiancoding.com/sketch -->
    <desc>Created with Sketch.</desc>
    <defs>
        <filter x="-6.2%" y="-5.1%" width="112.5%" height="113.6%" filterUnits="objectBoundingBox" id="filter-1">
            <feOffset dx="0" dy="2" in="SourceAlpha" result="shadowOffsetOuter1"></feOffset>
            <feGaussianBlur stdDeviation="2" in="shadowOffsetOuter1" result="shadowBlurOuter1"></feGaussianBlur>
            <feColorMatrix values="0 0 0 0 0   0 0 0 0 0   0 0 0 0 0  0 0 0 0.5 0" type="matrix" in="shadowBlurOuter1" result="shadowMatrixOuter1"></feColorMatrix>
            <feMerge>
                <feMergeNode in="shadowMatrixOuter1"></feMergeNode>
                <feMergeNode in="SourceGraphic"></feMergeNode>
            </feMerge>
        </filter>
    </defs>
    <g id="Page-1" stroke="none" stroke-width="1" fill="none" fill-rule="evenodd">
        <g id="iPhone-SE-Copy-2" transform="translate(-92.000000, -135.000000)" fill-rule="nonzero" fill="#F70E0E">
            <g id="noun_157910_cc" filter="url(#filter-1)" transform="translate(96.000000, 137.000000)">
                <path d="M65.1168883,11.1097722 C71.0638995,6.99048808 77.506495,4.35414625 84.6098695,3.36551807 C108.728304,0.0700907831 125.578169,16.3824558 127.725701,35.9902482 C129.047259,47.5242437 125.578169,57.7400682 117.648821,66.4729505 C117.318431,66.8024933 116.988042,67.2968073 116.988042,67.7911214 C115.666484,74.5467474 112.692978,77.1830892 105.919993,78.006946 C105.754798,78.006946 105.754798,78.1717174 105.589604,78.1717174 C105.094019,85.256886 100.468566,89.3761701 94.0259706,89.5409415 C94.0259706,93.0011402 92.8696074,96.1317961 89.8961017,98.4385952 C87.0877909,100.745394 83.7838957,101.40448 80.1496111,100.580623 C79.6540268,104.699907 77.0109107,107.171477 74.3677946,109.643048 C72.7158471,111.12599 71.2290943,112.773704 69.5771467,114.421417 C66.1080568,117.881616 62.1433827,118.870244 57.6831242,117.222531 C53.2228658,115.574817 50.9101392,112.114618 50.7449445,107.171477 C50.7449445,107.006706 50.7449445,106.841935 50.5797497,106.512392 C47.4410493,106.677163 44.6327385,105.523764 42.3200119,103.381736 C40.0072853,101.239708 39.0161167,98.4385952 39.0161167,95.1431679 C35.8774164,94.9783965 33.0691055,94.1545397 30.7563789,91.8477406 C28.4436523,89.7057129 27.6176786,86.9045997 27.4524838,83.7739438 C26.9568995,83.7739438 26.4613153,83.6091724 25.965731,83.6091724 C19.6883302,82.7853156 15.8888508,78.3364887 16.0540456,72.0751769 C16.0540456,71.4160914 15.7236561,70.5922346 15.2280718,70.2626919 C8.62028156,64.1661514 3.66443887,57.0809828 1.51690703,48.3481005 C-1.62179334,35.6607054 -0.135040533,23.7971672 8.28989205,13.5813426 C22.1662516,-3.39010786 47.9366336,-4.54350741 64.2909145,10.6154581 C64.7864988,10.7802295 64.9516935,10.9450008 65.1168883,11.1097722 Z M68.9163677,88.387542 C69.2467572,88.387542 69.4119519,88.5523133 69.5771467,88.5523133 C73.2114313,88.7170847 76.0197422,90.200027 78.167274,92.8363688 C78.8280531,93.6602256 79.6540268,94.3193111 80.6451954,94.8136252 C83.1231167,96.2965674 86.2618171,95.3079392 87.7485699,92.8363688 C89.070128,90.5295697 88.7397384,88.0579992 86.4270119,85.7512001 C78.9932478,78.3364887 71.7246785,71.0865487 64.2909145,63.6718373 C63.960525,63.3422946 63.4649407,62.8479805 63.1345512,62.5184378 C62.1433827,61.3650382 62.3085774,59.882096 63.2997459,58.8934678 C64.2909145,57.9048396 65.7776673,57.7400682 66.9340306,58.7286964 C67.4296149,59.0582391 67.7600044,59.5525532 68.0903939,59.882096 C75.5241579,67.2968073 82.957922,74.7115187 90.391686,82.1262301 C91.8784388,83.6091724 93.5303864,84.4330292 95.6779182,83.9387151 C97.82545,83.444401 99.1470081,82.1262301 99.6425924,79.9842024 C100.303371,77.8421747 99.4773976,76.194461 97.9906448,74.7115187 C90.2264912,67.132036 82.6275325,59.3877819 74.8633789,51.8082991 C73.5418208,50.4901282 73.3766261,48.8424146 74.5329894,47.689015 C75.6893527,46.5356155 77.3413002,46.7003868 78.6628583,48.0185577 C83.1231167,52.4673846 87.5833751,56.75144 92.0436336,61.2002669 C95.3475287,64.4956942 98.6514238,67.7911214 101.955319,71.0865487 C104.76363,73.7228905 108.728304,73.2285765 110.545446,70.0979205 C111.867004,67.9558928 111.37142,65.4843223 109.389083,63.3422946 C98.8166186,52.3026132 88.0789594,41.5924745 77.3413002,30.8823359 C77.1761055,30.7175645 76.845716,30.3880218 76.3501317,30.0584791 C76.0197422,30.3880218 75.8545474,30.7175645 75.5241579,31.0471072 C71.5594838,35.00162 67.7600044,38.9561327 63.6301355,42.7458741 C55.2052029,50.4901282 42.3200119,49.1719573 35.0514426,40.1095323 C43.6415699,31.7061927 52.2316973,23.1380818 60.8218246,14.7347422 C46.9454651,0.72917624 22.3314463,2.70643261 11.2633977,18.8540263 C4.32521789,28.9050795 4.16002314,39.7799895 8.28989205,50.8196709 C10.4374239,56.5866687 14.0717085,61.5298096 18.8623565,65.6490937 C21.6706673,62.8479805 24.4789782,60.0468673 27.287289,57.2457541 C30.2607947,54.2798696 33.7298845,53.4560128 37.6945587,54.6094123 C41.6592329,55.7628119 44.302349,58.3991537 45.2935175,62.3536664 C45.623907,63.3422946 45.623907,64.4956942 45.7891018,65.4843223 C48.9278021,65.4843223 51.736113,66.4729505 53.8836448,68.7797496 C56.1963714,71.0865487 57.0223452,73.8876619 57.18754,76.8535465 C65.1168883,77.1830892 69.0815624,82.6205442 68.9163677,88.387542 Z M115.336094,60.8707241 C115.336094,60.8707241 115.501289,60.5411814 115.666484,60.5411814 C115.996873,60.0468673 116.327263,59.7173246 116.657652,59.2230105 C121.4483,52.1378418 123.595832,44.3935877 122.274274,35.8254768 C120.622326,25.2801095 115.336094,17.0415413 105.754798,12.0984004 C93.5303864,5.67231716 76.845716,7.8143449 66.2732516,17.5358554 C58.3439033,24.7857954 51.075334,32.5300495 43.3111804,40.1095323 C43.3111804,40.1095323 43.3111804,40.2743036 43.3111804,40.439075 C48.2670231,44.064045 55.7007871,43.2401882 60.4914351,38.62659 C64.9516935,34.3425345 69.2467572,29.8937077 73.7070156,25.4448809 C76.0197422,23.1380818 77.1761055,23.1380818 79.4888321,25.4448809 C84.940259,30.8823359 90.5568808,36.4845623 96.0083077,41.9220173 C102.285708,48.0185577 108.728304,54.4446409 115.336094,60.8707241 Z M45.9542965,70.9217774 C45.2935175,71.2513201 44.1371542,71.4160914 43.3111804,72.0751769 C40.17248,74.8762901 37.1989744,77.8421747 34.3906636,80.9728306 C32.5735212,83.1148583 32.9039108,86.0807429 35.0514426,88.0579992 C37.0337797,90.0352556 40.17248,90.0352556 42.1548171,88.2227706 C44.963128,85.5864288 47.7714388,82.7853156 50.4145549,79.9842024 C52.0665025,78.3364887 52.396892,76.3592324 51.4057235,74.2172046 C50.4145549,72.2399483 48.7626074,71.2513201 45.9542965,70.9217774 Z M63.7953302,88.0579992 C63.6301355,88.0579992 63.4649407,87.8932279 63.4649407,87.8932279 C63.4649407,85.5864288 62.3085774,83.9387151 60.1610456,83.1148583 C58.0135137,82.1262301 56.0311767,82.4557728 54.3792291,84.1034865 C51.736113,86.5750569 49.0929969,89.2113988 46.6150755,91.8477406 C44.302349,94.1545397 44.302349,97.2851956 46.284686,99.4272234 C48.5974126,101.734022 51.736113,101.734022 54.0488396,99.4272234 C56.6919557,96.9556529 59.169877,94.4840824 61.6477984,91.8477406 C62.4737722,90.6943411 62.9693564,89.2113988 63.7953302,88.0579992 Z M55.8659819,106.841935 C56.1963714,109.148734 57.5179295,111.12599 59.5002665,111.949847 C61.6477984,112.773704 63.6301355,112.444161 65.282083,110.796447 C67.9251991,108.160106 70.73351,105.523764 73.3766261,102.722651 C75.5241579,100.580623 75.3589632,97.449967 73.3766261,95.4727106 C71.2290943,93.3306829 68.0903939,93.1659115 65.9428621,95.3079392 C63.1345512,97.9442811 60.4914351,100.580623 57.848319,103.381736 C57.0223452,104.370364 56.5267609,105.688535 55.8659819,106.841935 Z M21.5054726,72.569491 C21.8358621,75.0410615 22.9922254,76.6887751 24.9745624,77.6774033 C27.1220943,78.6660315 29.1044314,78.3364887 30.7563789,76.6887751 C33.5646898,74.0524333 36.2078059,71.2513201 38.850922,68.6149783 C40.9984538,66.4729505 40.8332591,63.3422946 38.850922,61.3650382 C36.7033902,59.2230105 33.5646898,59.0582391 31.417158,61.2002669 C28.7740418,63.8366087 25.965731,66.4729505 23.4878096,69.2740637 C22.4966411,70.0979205 22.0010568,71.4160914 21.5054726,72.569491 Z" id="Shape"></path>
            </g>
        </g>
    </g>
</svg>