
<svg width="126px" height="114px" viewBox="0 0 126 114" version="1.1" xmlns="http://www.w3.org/2000/svg" xmlns:xlink="http://www.w3.org/1999/xlink">
    <!-- Generator: Sketch 46.2 (44496) - http://www.bohemiancoding.com/sketch -->
    <desc>Created with Sketch.</desc>
    <defs>
        <filter x="-5.9%" y="-4.7%" width="112.7%" height="113.2%" filterUnits="objectBoundingBox" id="filter-1">
            <feOffset dx="0" dy="2" in="SourceAlpha" result="shadowOffsetOuter1"></feOffset>
            <feGaussianBlur stdDeviation="2" in="shadowOffsetOuter1" result="shadowBlurOuter1"></feGaussianBlur>
            <feColorMatrix values="0 0 0 0 0   0 0 0 0 0   0 0 0 0 0  0 0 0 0.5 0" type="matrix" in="shadowBlurOuter1" result="shadowMatrixOuter1"></feColorMatrix>
            <feMerge>
                <feMergeNode in="shadowMatrixOuter1"></feMergeNode>
                <feMergeNode in="SourceGraphic"></feMergeNode>
            </feMerge>
        </filter>
    </defs>
    <g id="Page-1" stroke="none" stroke-width="1" fill="none" fill-rule="evenodd">
        <g id="iPhone-SE-Copy" transform="translate(-97.000000, -137.000000)" fill-rule="nonzero" fill="#000000">
            <g id="noun_1002257_cc" filter="url(#filter-1)" transform="translate(101.000000, 139.000000)">
                <path d="M112.906627,43.8519592 L105.31515,39.9019912 L99.3530042,23.5291302 C97.9668255,19.7519946 94.4097494,17.2368433 90.4218546,17.2140579 L75.600974,17.2140579 L75.600974,3.04781479 C75.600974,1.36455316 74.2500917,0 72.5836938,0 L17.3795343,0 C15.7225707,0.0133902828 14.3863392,1.37402933 14.3863922,3.04781479 L14.3863922,10.6063955 C14.3863922,12.2896571 15.7372746,13.6542103 17.4036725,13.6542103 C19.0700704,13.6542103 20.4209528,12.2896571 20.4209528,10.6063955 L20.4209528,6.08343832 L69.5664135,6.08343832 L69.5664135,66.3326411 L20.4209528,66.3326411 L20.4209528,61.8096839 C20.4209528,60.1264223 19.0700704,58.7618691 17.4036725,58.7618691 C15.7372746,58.7618691 14.3863922,60.1264223 14.3863922,61.8096839 L14.3863922,92.2878318 C14.3863922,93.9710934 15.7372746,95.3356466 17.4036725,95.3356466 L28.5555403,95.3356466 C29.9840214,101.578542 35.4882858,106 41.8315734,106 C48.1748611,106 53.6791255,101.578542 55.1076066,95.3356466 L77.1458215,95.3356466 C78.591072,101.574688 84.1073023,105.981077 90.4506483,105.963602 C96.7939944,105.946127 102.286349,101.50941 103.697888,95.262499 C103.915794,95.3116142 104.138424,95.3361469 104.361689,95.3356466 L114.982516,95.3356466 C116.648914,95.3356466 117.999796,93.9710934 117.999796,92.2878318 L117.999796,52.4224144 C118.023034,48.8280988 116.057936,45.5213591 112.906627,43.8519592 Z M75.600974,23.3096875 L90.4218546,23.3096875 C91.8937767,23.3146616 93.2076063,24.2431633 93.7167247,25.638218 L100.077151,43.1204836 C100.337428,43.8367982 100.854234,44.4284391 101.525446,44.7784949 L110.154867,49.2648783 C111.32832,49.8708091 112.065345,51.0911968 112.061789,52.4224144 L112.061789,66.3326411 L75.600974,66.3326411 L75.600974,23.3096875 Z M41.8074352,99.9683251 C37.6081126,99.9683251 34.203889,96.5296511 34.203889,92.2878318 C34.203889,88.0460125 37.6081126,84.6073385 41.8074352,84.6073385 C46.0067578,84.6073385 49.4109814,88.0460125 49.4109814,92.2878318 C49.4110025,96.5268804 46.0160629,99.9670804 41.8195043,99.9805163 L41.8074352,99.9683251 Z M90.458062,99.9683251 C86.2587394,99.9683251 82.8545158,96.5296511 82.8545158,92.2878318 C82.8545158,88.0460125 86.2587394,84.6073385 90.458062,84.6073385 C94.6573846,84.6073385 98.0616082,88.0460125 98.0616082,92.2878318 C98.0616184,94.3322902 97.2559486,96.2926588 95.8225188,97.7360199 C94.3890889,99.1793811 92.4458204,99.9869964 90.4218546,99.9805163 L90.458062,99.9683251 Z M112.03765,89.240017 L104.434104,89.240017 C104.210839,89.2395167 103.988209,89.2640494 103.770302,89.3131646 C102.358763,83.0662533 96.8664091,78.6295364 90.5230631,78.6120613 C84.179717,78.5945862 78.6634868,83.0009758 77.2182363,89.240017 L55.1076066,89.240017 C53.6791255,82.9971214 48.1748611,78.5756636 41.8315734,78.5756636 C35.4882858,78.5756636 29.9840214,82.9971214 28.5555403,89.240017 L20.4209528,89.240017 L20.4209528,72.4282706 L112.049719,72.4282706 L112.03765,89.240017 Z M3.01728025,25.9917645 C1.35088238,25.9917645 0,24.6272114 0,22.9439497 C-2.67988321e-16,21.2606881 1.35088238,19.8961349 3.01728025,19.8961349 L29.0745125,19.8961349 C30.7409104,19.8961349 32.0917928,21.2606881 32.0917928,22.9439497 C32.0917928,24.6272114 30.7409104,25.9917645 29.0745125,25.9917645 L3.01728025,25.9917645 Z M32.0917928,36.2080397 C32.0917928,37.8913013 30.7409104,39.2558545 29.0745125,39.2558545 L7.84492866,39.2558545 C6.17853079,39.2558545 4.82764841,37.8913013 4.82764841,36.2080397 C4.82764841,34.5247781 6.17853079,33.1602249 7.84492866,33.1602249 L29.0745125,33.1602249 C30.7409104,33.1602249 32.0917928,34.5247781 32.0917928,36.2080397 Z M32.0917928,49.4721297 C32.0917928,51.1553913 30.7409104,52.5199444 29.0745125,52.5199444 L12.6725771,52.5199444 C11.0061792,52.5199444 9.65529681,51.1553913 9.65529681,49.4721297 C9.65529681,47.788868 11.0061792,46.4243149 12.6725771,46.4243149 L29.0745125,46.4243149 C30.7409104,46.4243149 32.0917928,47.788868 32.0917928,49.4721297 L32.0917928,49.4721297 Z" id="Shape"></path>
            </g>
        </g>
    </g>
</svg>