<?xml version="1.0" encoding="utf-8"?>
<!-- Generator: Adobe Illustrator 21.1.0, SVG Export Plug-In . SVG Version: 6.00 Build 0)  -->
<svg version="1.1" id="Layer_1" xmlns="http://www.w3.org/2000/svg" xmlns:xlink="http://www.w3.org/1999/xlink" x="0px" y="0px"
	 viewBox="0 0 645 194" style="enable-background:new 0 0 645 194;" xml:space="preserve">
<style type="text/css">
	.st0{fill:#E07E07;}
	.st1{fill:#FFFFFF;}
	.st2{fill:#9191E5;}
</style>
<path d="M634.7,50.6c-2.6-8.1-9.3-15.9-14.6-20.5c-0.1-0.1-0.2-0.1-0.2-0.2c0,0,0,0,0,0c-0.1-0.1-0.2-0.1-0.2-0.2c0,0,0,0,0,0
	c-0.1-0.1-0.2-0.1-0.2-0.2c0,0,0,0,0,0c-0.1-0.1-0.2-0.1-0.2-0.2c0,0,0,0,0,0c-0.1-0.1-0.2-0.1-0.2-0.2c0,0,0,0,0,0
	c-0.1-0.1-0.2-0.1-0.2-0.2c0,0,0,0,0,0c-0.1-0.1-0.2-0.1-0.2-0.2c0,0,0,0,0,0c-0.1-0.1-0.2-0.1-0.2-0.2c0,0,0,0,0,0
	c-0.1-0.1-0.2-0.1-0.2-0.2c0,0,0,0,0,0c-0.1-0.1-0.2-0.1-0.2-0.2c0,0,0,0,0,0c-0.1-0.1-0.2-0.1-0.2-0.2c0,0,0,0,0,0
	c-0.1-0.1-0.2-0.1-0.2-0.2c0,0,0,0,0,0c-0.1-0.1-0.2-0.1-0.2-0.2c0,0,0,0,0,0c-0.1-0.1-0.2-0.1-0.2-0.2c0,0,0,0,0,0
	c-0.1-0.1-0.2-0.1-0.2-0.2c0,0,0,0,0,0c-0.1-0.1-0.2-0.1-0.2-0.2c0,0,0,0,0,0c-0.1-0.1-0.2-0.1-0.2-0.2c0,0,0,0,0,0
	c-0.1-0.1-0.2-0.1-0.2-0.2c0,0,0,0,0,0c-0.1-0.1-0.2-0.1-0.2-0.2c0,0,0,0,0,0c-0.1-0.1-0.2-0.1-0.2-0.2c0,0,0,0,0,0
	c-0.1-0.1-0.2-0.1-0.2-0.2c0,0,0,0,0,0c-0.1-0.1-0.2-0.1-0.2-0.2c0,0,0,0,0,0c-0.1-0.1-0.2-0.1-0.2-0.2c0,0,0,0,0,0
	c-0.1-0.1-0.2-0.1-0.2-0.2c0,0,0,0,0,0c-0.1-0.1-0.2-0.1-0.2-0.2c0,0,0,0,0,0c-0.1-0.1-0.2-0.1-0.2-0.2c0,0,0,0,0,0
	c-0.1-0.1-0.2-0.1-0.2-0.2c0,0,0,0,0,0c-0.1-0.1-0.2-0.1-0.2-0.2c0,0,0,0,0,0c-0.1-0.1-0.2-0.1-0.2-0.2c0,0,0,0,0,0
	c-0.1-0.1-0.2-0.1-0.2-0.2c0,0,0,0,0,0c-0.1-0.1-0.2-0.1-0.2-0.2c0,0,0,0,0,0c-0.1-0.1-0.2-0.1-0.2-0.2c0,0,0,0,0,0
	c-0.1-0.1-0.2-0.1-0.2-0.2c0,0,0,0,0,0c-0.1-0.1-0.2-0.1-0.2-0.2c0,0,0,0,0,0c-0.1-0.1-0.2-0.1-0.2-0.2c0,0,0,0,0,0
	c-0.1-0.1-0.2-0.1-0.2-0.2c0,0,0,0,0,0c-0.1-0.1-0.2-0.1-0.2-0.2c0,0,0,0,0,0c-0.1-0.1-0.2-0.1-0.2-0.2c0,0,0,0,0,0
	c-0.1-0.1-0.2-0.1-0.2-0.2c0,0,0,0,0,0c-0.1-0.1-0.2-0.1-0.2-0.2c0,0,0,0,0,0c-0.1-0.1-0.2-0.1-0.2-0.2c0,0,0,0,0,0
	c-0.1-0.1-0.2-0.1-0.2-0.2c0,0,0,0,0,0c-0.1-0.1-0.2-0.1-0.2-0.2c0,0,0,0,0,0c-0.1-0.1-0.2-0.1-0.2-0.2c0,0,0,0,0,0
	c-0.1-0.1-0.2-0.1-0.2-0.2c0,0,0,0,0,0c-0.1-0.1-0.2-0.1-0.2-0.2c0,0,0,0,0,0c-0.1-0.1-0.2-0.1-0.2-0.2c0,0,0,0,0,0
	c-0.1-0.1-0.2-0.1-0.2-0.2c0,0,0,0,0,0c-0.1-0.1-0.2-0.1-0.2-0.2c0,0,0,0,0,0c-0.1-0.1-0.2-0.1-0.2-0.2c0,0,0,0,0,0
	c-0.1-0.1-0.2-0.1-0.2-0.2c0,0,0,0,0,0c-0.1-0.1-0.2-0.1-0.2-0.2c0,0,0,0,0,0c-0.1-0.1-0.2-0.1-0.2-0.2c0,0,0,0,0,0
	c-0.1-0.1-0.2-0.1-0.2-0.2c0,0,0,0,0,0c-0.1-0.1-0.2-0.1-0.2-0.2c0,0,0,0,0,0c-0.1-0.1-0.2-0.1-0.2-0.2c0,0,0,0,0,0
	c-0.1-0.1-0.2-0.1-0.2-0.2c0,0,0,0,0,0c-0.1-0.1-0.2-0.1-0.2-0.2c0,0,0,0,0,0c-0.1-0.1-0.2-0.1-0.2-0.2c0,0,0,0,0,0
	c-0.1-0.1-0.2-0.1-0.2-0.2c0,0,0,0,0,0c-0.1-0.1-0.2-0.1-0.2-0.2c0,0,0,0,0,0c-0.1-0.1-0.2-0.1-0.2-0.2c0,0,0,0,0,0
	c-0.1-0.1-0.2-0.1-0.2-0.2c0,0,0,0,0,0c-0.1-0.1-0.2-0.1-0.2-0.2c0,0,0,0,0,0c-0.1-0.1-0.2-0.1-0.2-0.2c0,0,0,0,0,0
	c-0.1-0.1-0.2-0.1-0.2-0.2c0,0,0,0,0,0c-0.1-0.1-0.2-0.1-0.2-0.2c0,0,0,0,0,0c-0.1-0.1-0.2-0.1-0.2-0.2c0,0,0,0,0,0
	c-0.1-0.1-0.2-0.1-0.2-0.2c0,0,0,0,0,0c-0.1-0.1-0.2-0.1-0.2-0.2c0,0,0,0,0,0c-0.1-0.1-0.2-0.1-0.2-0.2c0,0,0,0,0,0
	c-0.1-0.1-0.2-0.1-0.2-0.2c0,0,0,0,0,0c-0.1-0.1-0.2-0.1-0.2-0.2c0,0,0,0,0,0c-0.1-0.1-0.2-0.1-0.2-0.2c0,0,0,0,0,0
	c-0.1-0.1-0.2-0.1-0.2-0.2c0,0,0,0,0,0c-0.1-0.1-0.2-0.1-0.2-0.2c0,0,0,0,0,0c-0.1-0.1-0.2-0.1-0.2-0.2c0,0,0,0,0,0
	c-0.1-0.1-0.2-0.1-0.2-0.2c0,0,0,0,0,0c-0.1-0.1-0.2-0.1-0.2-0.2c0,0,0,0,0,0c-0.1-0.1-0.2-0.1-0.2-0.2c0,0,0,0,0,0
	c-0.1-0.1-0.2-0.1-0.2-0.2c0,0,0,0,0,0c-5.2-4.5-11.7-6.8-19.5-6.8c-6.1,0-12.9,1.5-20.4,4.4c-6.8,2.6-14.3,7.1-21.8,13
	c0,0-0.1-0.1-0.1-0.1c-0.1-0.1-0.2-0.1-0.2-0.2c-0.1-0.1-0.2-0.1-0.2-0.2c-0.1-0.1-0.2-0.1-0.2-0.2c-0.1-0.1-0.2-0.1-0.2-0.2
	c-0.1-0.1-0.2-0.1-0.2-0.2c-0.1-0.1-0.2-0.1-0.2-0.2c-0.1-0.1-0.2-0.1-0.2-0.2c-0.1-0.1-0.2-0.1-0.2-0.2c-0.1-0.1-0.2-0.1-0.2-0.2
	c-0.1-0.1-0.2-0.1-0.2-0.2c-0.1-0.1-0.2-0.1-0.2-0.2c-0.1-0.1-0.2-0.1-0.2-0.2c-0.1-0.1-0.2-0.1-0.2-0.2c-0.1-0.1-0.2-0.1-0.2-0.2
	c-0.1-0.1-0.2-0.1-0.2-0.2c-0.1-0.1-0.2-0.1-0.2-0.2c-0.1-0.1-0.2-0.1-0.2-0.2c-0.1-0.1-0.2-0.1-0.2-0.2c-0.1-0.1-0.2-0.1-0.2-0.2
	c-0.1-0.1-0.2-0.1-0.2-0.2c-0.1-0.1-0.2-0.1-0.2-0.2c-0.1-0.1-0.2-0.1-0.2-0.2c-0.1-0.1-0.2-0.1-0.2-0.2c-0.1-0.1-0.2-0.1-0.2-0.2
	c-0.1-0.1-0.2-0.1-0.2-0.2c-0.1-0.1-0.2-0.1-0.2-0.2c-0.1-0.1-0.2-0.1-0.2-0.2c-0.1-0.1-0.2-0.1-0.2-0.2c-0.1-0.1-0.2-0.1-0.2-0.2
	c-0.1-0.1-0.2-0.1-0.2-0.2c-0.1-0.1-0.2-0.1-0.2-0.2c-0.1-0.1-0.2-0.1-0.2-0.2c-0.1-0.1-0.2-0.1-0.2-0.2c-0.1-0.1-0.2-0.1-0.2-0.2
	c-0.1-0.1-0.2-0.1-0.2-0.2c-0.1-0.1-0.2-0.1-0.2-0.2c-4.6-4-10.6-6-17.8-6c-0.3,0-0.7,0-0.9,0c-5.6,0.1-12.5,1.2-20.5,2.4
	c-9.6,1.5-20.4,3.2-29.6,3.2c-1.3,0-2.5,0-3.7-0.1c-0.5,0-0.9-0.1-1.4-0.1c-2.8,0-4.9,0.8-6.5,1.7c-0.1-0.1-0.1-0.1-0.2-0.2
	c-0.1-0.1-0.2-0.1-0.2-0.2c-0.1-0.1-0.2-0.1-0.2-0.2c-0.1-0.1-0.2-0.1-0.2-0.2c-0.1-0.1-0.2-0.1-0.2-0.2c-0.1-0.1-0.2-0.1-0.2-0.2
	c-0.1-0.1-0.2-0.1-0.2-0.2c-0.1-0.1-0.2-0.1-0.2-0.2c-5.3-4-12.5-6.1-21.5-6.3c-0.4,0-0.9,0-1.3,0c-6.1,0-15.1,1.3-25.6,2.7
	c-10.6,1.5-22.4,3.1-32.1,3.5c-0.1,0-0.1-0.1-0.2-0.1c-0.1-0.1-0.2-0.1-0.2-0.2c-0.1-0.1-0.2-0.1-0.2-0.2c-0.1-0.1-0.2-0.1-0.2-0.2
	c-0.1-0.1-0.2-0.1-0.2-0.2c-0.1-0.1-0.2-0.1-0.2-0.2c-0.1-0.1-0.2-0.1-0.2-0.2c-0.1-0.1-0.2-0.1-0.2-0.2c-0.1-0.1-0.2-0.1-0.2-0.2
	c-0.1-0.1-0.2-0.1-0.2-0.2c-0.1-0.1-0.2-0.1-0.2-0.2c-0.1-0.1-0.2-0.1-0.2-0.2c-0.1-0.1-0.2-0.1-0.2-0.2c-0.1-0.1-0.2-0.1-0.2-0.2
	c-0.1-0.1-0.2-0.1-0.2-0.2c-0.1-0.1-0.2-0.1-0.2-0.2c-0.1-0.1-0.2-0.1-0.2-0.2c-0.1-0.1-0.2-0.1-0.2-0.2c-0.1-0.1-0.2-0.1-0.2-0.2
	c-0.1-0.1-0.2-0.1-0.2-0.2c-0.1-0.1-0.2-0.1-0.2-0.2c-0.1-0.1-0.2-0.1-0.2-0.2c-0.1-0.1-0.2-0.1-0.2-0.2c-0.1-0.1-0.2-0.1-0.2-0.2
	c-0.1-0.1-0.2-0.1-0.2-0.2c-0.1-0.1-0.2-0.1-0.2-0.2c-0.1-0.1-0.2-0.1-0.2-0.2c-0.1-0.1-0.2-0.1-0.2-0.2c-2.4-2.1-5.3-3-7.8-3
	c-3,0-7.4,1.1-11.2,6.5c-6.3,8.9-17.8,28.9-28.4,48.4c-3.7-2.5-8.2-3.8-13.2-3.8c-13.6,0-29.3,9.5-43.8,26.1c-1.4-1.7-3-3.3-5-4.8
	c0,0,0,0-0.1-0.1c-0.1-0.1-0.2-0.1-0.2-0.2c-0.1-0.1-0.2-0.1-0.2-0.2c-0.1-0.1-0.2-0.1-0.2-0.2c-0.1-0.1-0.2-0.1-0.2-0.2
	c-0.1-0.1-0.2-0.1-0.2-0.2c-0.1-0.1-0.2-0.1-0.2-0.2c-0.1-0.1-0.2-0.1-0.2-0.2c-0.1-0.1-0.2-0.1-0.2-0.2c-0.1-0.1-0.2-0.1-0.2-0.2
	c-0.1-0.1-0.2-0.1-0.2-0.2c-0.1-0.1-0.2-0.1-0.2-0.2c-0.1-0.1-0.2-0.1-0.2-0.2c-0.1-0.1-0.2-0.1-0.2-0.2c-0.1-0.1-0.2-0.1-0.2-0.2
	c-0.1-0.1-0.2-0.1-0.2-0.2c-0.1-0.1-0.2-0.1-0.2-0.2c-0.1-0.1-0.2-0.1-0.2-0.2c-0.1-0.1-0.2-0.1-0.2-0.2c-0.1-0.1-0.2-0.1-0.2-0.2
	c-0.1-0.1-0.2-0.1-0.2-0.2c-0.1-0.1-0.2-0.1-0.2-0.2c-0.1-0.1-0.2-0.1-0.2-0.2c-0.1-0.1-0.2-0.1-0.2-0.2c-0.1-0.1-0.2-0.1-0.2-0.2
	c-0.1-0.1-0.2-0.1-0.2-0.2c-0.1-0.1-0.2-0.1-0.2-0.2c-0.1-0.1-0.2-0.1-0.2-0.2c-0.1-0.1-0.2-0.1-0.2-0.2c-0.1-0.1-0.2-0.1-0.2-0.2
	c-0.1-0.1-0.2-0.1-0.2-0.2c-0.1-0.1-0.2-0.1-0.2-0.2c-0.1-0.1-0.2-0.1-0.2-0.2c-0.1-0.1-0.2-0.1-0.2-0.2c-0.1-0.1-0.2-0.1-0.2-0.2
	c-0.1-0.1-0.2-0.1-0.2-0.2c-0.1-0.1-0.2-0.1-0.2-0.2c-0.1-0.1-0.2-0.1-0.2-0.2c-0.1-0.1-0.2-0.1-0.2-0.2c-0.1-0.1-0.2-0.1-0.2-0.2
	c-0.1-0.1-0.2-0.1-0.2-0.2c-0.1-0.1-0.2-0.1-0.2-0.2c-0.1-0.1-0.2-0.1-0.2-0.2c-0.1-0.1-0.2-0.1-0.2-0.2c-0.1-0.1-0.2-0.1-0.2-0.2
	c-0.1-0.1-0.2-0.1-0.2-0.2c-0.1-0.1-0.2-0.1-0.2-0.2c-0.1-0.1-0.2-0.1-0.2-0.2c-0.1-0.1-0.2-0.1-0.2-0.2c-0.1-0.1-0.2-0.1-0.2-0.2
	c-0.1-0.1-0.2-0.1-0.2-0.2c-0.1-0.1-0.2-0.1-0.2-0.2c-0.1-0.1-0.2-0.1-0.2-0.2c-0.1-0.1-0.2-0.1-0.2-0.2c-0.1-0.1-0.2-0.1-0.2-0.2
	c-0.1-0.1-0.2-0.1-0.2-0.2c-0.1-0.1-0.2-0.1-0.2-0.2c-0.1-0.1-0.2-0.1-0.2-0.2c-0.1-0.1-0.2-0.1-0.2-0.2c-0.1-0.1-0.2-0.1-0.2-0.2
	c-0.1-0.1-0.2-0.1-0.2-0.2c-0.1-0.1-0.2-0.1-0.2-0.2c-0.1-0.1-0.2-0.1-0.2-0.2c-0.1-0.1-0.2-0.1-0.2-0.2c-0.1-0.1-0.2-0.1-0.2-0.2
	c-0.1-0.1-0.2-0.1-0.2-0.2c-0.1-0.1-0.2-0.1-0.2-0.2c-0.1-0.1-0.2-0.1-0.2-0.2c-0.1-0.1-0.2-0.1-0.2-0.2c-0.1-0.1-0.2-0.1-0.2-0.2
	c-0.1-0.1-0.2-0.1-0.2-0.2c-0.1-0.1-0.2-0.1-0.2-0.2c-0.1-0.1-0.2-0.1-0.2-0.2c-0.1-0.1-0.2-0.1-0.2-0.2c-0.1-0.1-0.2-0.1-0.2-0.2
	c-0.1-0.1-0.2-0.1-0.2-0.2c0,0-0.1-0.1-0.1-0.1c-3.7-3.1-8.6-5.6-15.7-5.6c-0.8,0-1.6,0-2.5,0.1c-12.3,0.8-24.5,8.3-35.3,21.7
	c-0.5,0.6-1,1.1-1.4,1.7c-1-1-2-2.1-3.3-3c-0.1-0.1-0.2-0.1-0.2-0.2c-0.1-0.1-0.2-0.1-0.2-0.2c-0.1-0.1-0.2-0.1-0.2-0.2
	c-0.1-0.1-0.2-0.1-0.2-0.2c-0.1-0.1-0.2-0.1-0.2-0.2c-0.1-0.1-0.2-0.1-0.2-0.2c-0.1-0.1-0.2-0.1-0.2-0.2c-0.1-0.1-0.2-0.1-0.2-0.2
	c-0.1-0.1-0.2-0.1-0.2-0.2c-0.1-0.1-0.2-0.1-0.2-0.2c-0.1-0.1-0.2-0.1-0.2-0.2c-0.1-0.1-0.2-0.1-0.2-0.2c-0.1-0.1-0.2-0.1-0.2-0.2
	c-0.1-0.1-0.2-0.1-0.2-0.2c-0.1-0.1-0.2-0.1-0.2-0.2c-0.1-0.1-0.2-0.1-0.2-0.2c-0.1-0.1-0.2-0.1-0.2-0.2c-0.1-0.1-0.2-0.1-0.2-0.2
	c-0.1-0.1-0.2-0.1-0.2-0.2c-0.1-0.1-0.2-0.1-0.2-0.2c-0.1-0.1-0.2-0.1-0.2-0.2c-0.1-0.1-0.2-0.1-0.2-0.2c-0.1-0.1-0.2-0.1-0.2-0.2
	c-0.1-0.1-0.2-0.1-0.2-0.2c-0.1-0.1-0.2-0.1-0.2-0.2c-0.1-0.1-0.2-0.1-0.2-0.2c-0.1-0.1-0.2-0.1-0.2-0.2c-0.1-0.1-0.2-0.1-0.2-0.2
	c-0.1-0.1-0.2-0.1-0.2-0.2c-0.1-0.1-0.2-0.1-0.2-0.2c-0.1-0.1-0.2-0.1-0.2-0.2c-0.1-0.1-0.2-0.1-0.2-0.2c-0.1-0.1-0.2-0.1-0.2-0.2
	c-0.1-0.1-0.2-0.1-0.2-0.2c-0.1-0.1-0.2-0.1-0.2-0.2c-0.1-0.1-0.2-0.1-0.2-0.2c-0.1-0.1-0.2-0.1-0.2-0.2c-0.1-0.1-0.2-0.1-0.2-0.2
	c-0.1-0.1-0.2-0.1-0.2-0.2c-0.1-0.1-0.2-0.1-0.2-0.2c-0.1-0.1-0.2-0.1-0.2-0.2c-0.1-0.1-0.2-0.1-0.2-0.2c-0.1-0.1-0.2-0.1-0.2-0.2
	c-0.1-0.1-0.2-0.1-0.2-0.2c-0.1-0.1-0.2-0.1-0.2-0.2c-0.1-0.1-0.2-0.1-0.2-0.2c-0.1-0.1-0.2-0.1-0.2-0.2c-0.1-0.1-0.2-0.1-0.2-0.2
	c-0.1-0.1-0.2-0.1-0.2-0.2c-0.1-0.1-0.2-0.1-0.2-0.2c-0.1-0.1-0.2-0.1-0.2-0.2c-0.1-0.1-0.2-0.1-0.2-0.2c-0.1-0.1-0.2-0.1-0.2-0.2
	c-0.1-0.1-0.2-0.1-0.2-0.2c-0.1-0.1-0.2-0.1-0.2-0.2c-0.1-0.1-0.2-0.1-0.2-0.2c-0.1-0.1-0.2-0.1-0.2-0.2c-0.1-0.1-0.2-0.1-0.2-0.2
	c-0.1-0.1-0.2-0.1-0.2-0.2c-0.1-0.1-0.2-0.1-0.2-0.2c-0.1-0.1-0.2-0.1-0.2-0.2c-0.1-0.1-0.2-0.1-0.2-0.2c-0.1-0.1-0.2-0.1-0.2-0.2
	c-0.1-0.1-0.2-0.1-0.2-0.2c-0.1-0.1-0.2-0.1-0.2-0.2c-0.1-0.1-0.2-0.1-0.2-0.2c-0.1-0.1-0.2-0.1-0.2-0.2c-0.1-0.1-0.2-0.1-0.2-0.2
	c-0.1-0.1-0.2-0.1-0.2-0.2c-0.1-0.1-0.2-0.1-0.2-0.2c-0.1-0.1-0.2-0.1-0.2-0.2c-0.1-0.1-0.2-0.1-0.2-0.2c-0.1-0.1-0.2-0.1-0.2-0.2
	c-0.1-0.1-0.2-0.1-0.2-0.2c-0.1-0.1-0.2-0.1-0.2-0.2c-0.1-0.1-0.2-0.1-0.2-0.2c-0.1-0.1-0.2-0.1-0.2-0.2c-0.1-0.1-0.2-0.1-0.2-0.2
	c-0.1-0.1-0.2-0.1-0.2-0.2c-0.1-0.1-0.2-0.1-0.2-0.2c-1.7-1.4-3.7-2.5-6-3.4c0.6,0,1.2,0,1.8,0c0.4,0,1.2,0,1.2,0
	c6.3,0,9.5-3.3,10.8-5.2c2.3-3.3,2.7-7.5,1.2-11.6l-0.1-0.2l-0.1-0.2c-2.1-4.9-5.1-8.9-8.9-11.7c-0.1-0.1-0.2-0.1-0.2-0.2
	c-0.1-0.1-0.2-0.1-0.2-0.2c-0.1-0.1-0.2-0.1-0.2-0.2c-0.1-0.1-0.2-0.1-0.2-0.2c-0.1-0.1-0.2-0.1-0.2-0.2c-0.1-0.1-0.2-0.1-0.2-0.2
	c-0.1-0.1-0.2-0.1-0.2-0.2c-0.1-0.1-0.2-0.1-0.2-0.2c-0.1-0.1-0.2-0.1-0.2-0.2c-0.1-0.1-0.2-0.1-0.2-0.2c-0.1-0.1-0.2-0.1-0.2-0.2
	c-0.1-0.1-0.2-0.1-0.2-0.2c-0.1-0.1-0.2-0.1-0.2-0.2c-0.1-0.1-0.2-0.1-0.2-0.2c-0.1-0.1-0.2-0.1-0.2-0.2c-0.1-0.1-0.2-0.1-0.2-0.2
	c-0.1-0.1-0.2-0.1-0.2-0.2c-0.1-0.1-0.2-0.1-0.2-0.2c-0.1-0.1-0.2-0.1-0.2-0.2c-0.1-0.1-0.2-0.1-0.2-0.2c-0.1-0.1-0.2-0.1-0.2-0.2
	c-0.1-0.1-0.2-0.1-0.2-0.2c-0.1-0.1-0.2-0.1-0.2-0.2c-0.1-0.1-0.2-0.1-0.2-0.2c-0.1-0.1-0.2-0.1-0.2-0.2c-0.1-0.1-0.2-0.1-0.2-0.2
	c-0.1-0.1-0.2-0.1-0.2-0.2c-0.1-0.1-0.2-0.1-0.2-0.2c-0.1-0.1-0.2-0.1-0.2-0.2c-0.1-0.1-0.2-0.1-0.2-0.2c-0.1-0.1-0.2-0.1-0.2-0.2
	c-0.1-0.1-0.2-0.1-0.2-0.2c-0.1-0.1-0.2-0.1-0.2-0.2c-0.1-0.1-0.2-0.1-0.2-0.2c-0.1-0.1-0.2-0.1-0.2-0.2c-0.1-0.1-0.2-0.1-0.2-0.2
	c-0.1-0.1-0.2-0.1-0.2-0.2c-0.1-0.1-0.2-0.1-0.2-0.2c-0.1-0.1-0.2-0.1-0.2-0.2c-0.1-0.1-0.2-0.1-0.2-0.2c-0.1-0.1-0.2-0.1-0.2-0.2
	c-0.1-0.1-0.2-0.1-0.2-0.2c-0.1-0.1-0.2-0.1-0.2-0.2c-0.1-0.1-0.2-0.1-0.2-0.2c-0.1-0.1-0.2-0.1-0.2-0.2c-0.1-0.1-0.2-0.1-0.2-0.2
	c-0.1-0.1-0.2-0.1-0.2-0.2c-0.1-0.1-0.2-0.1-0.2-0.2c-0.1-0.1-0.2-0.1-0.2-0.2c-0.1-0.1-0.2-0.1-0.2-0.2c-0.1-0.1-0.2-0.1-0.2-0.2
	c-0.1-0.1-0.2-0.1-0.2-0.2c-0.1-0.1-0.2-0.1-0.2-0.2c-0.1-0.1-0.2-0.1-0.2-0.2c-0.1-0.1-0.2-0.1-0.2-0.2c-0.1-0.1-0.2-0.1-0.2-0.2
	c-0.1-0.1-0.2-0.1-0.2-0.2c-0.1-0.1-0.2-0.1-0.2-0.2c-0.1-0.1-0.2-0.1-0.2-0.2c-0.1-0.1-0.2-0.1-0.2-0.2c-0.1-0.1-0.2-0.1-0.2-0.2
	c-0.1-0.1-0.2-0.1-0.2-0.2c-0.1-0.1-0.2-0.1-0.2-0.2c-0.1-0.1-0.2-0.1-0.2-0.2c-0.1-0.1-0.2-0.1-0.2-0.2c-0.1-0.1-0.2-0.1-0.2-0.2
	c-0.1-0.1-0.2-0.1-0.2-0.2c-0.1-0.1-0.2-0.1-0.2-0.2c-0.1-0.1-0.2-0.1-0.2-0.2c-0.1-0.1-0.2-0.1-0.2-0.2c-0.1-0.1-0.2-0.1-0.2-0.2
	c-0.1-0.1-0.2-0.1-0.2-0.2c-0.1-0.1-0.2-0.1-0.2-0.2c-0.1-0.1-0.2-0.1-0.2-0.2c-0.1-0.1-0.2-0.1-0.2-0.2c-0.1-0.1-0.2-0.1-0.2-0.2
	c-0.1-0.1-0.2-0.1-0.2-0.2c-0.1-0.1-0.2-0.1-0.2-0.2c-0.1-0.1-0.2-0.1-0.2-0.2c-0.1-0.1-0.2-0.1-0.2-0.2c-4.9-3.8-11.2-5.8-18.6-5.8
	c-5.9,0-13.2,1.1-21.6,2.5c-9.2,1.5-19.7,3.1-28.7,3.1c-1.1,0-2.1,0-3.1-0.1l-0.2,0h-0.2c-5.4,0-8.5,2.5-10.1,4.6
	c-1.3,1.7-3.3,5.3-2,10.5c1.1,4.2,2.8,7.9,5.3,11c-18.2,30.3-39,69.5-45.5,88.6c-3.7,11-5.9,26,4.7,35c0.1,0.1,0.1,0.1,0.2,0.2
	c0,0,0,0,0,0c0.1,0.1,0.1,0.1,0.2,0.2c0,0,0,0,0.1,0c0.1,0.1,0.1,0.1,0.2,0.1c0,0,0,0,0.1,0c0.1,0.1,0.1,0.1,0.2,0.2c0,0,0,0,0.1,0
	c0.1,0.1,0.1,0.1,0.2,0.2c0,0,0,0,0.1,0c0.1,0.1,0.1,0.1,0.2,0.2c0,0,0,0,0.1,0c0.1,0.1,0.1,0.1,0.2,0.2c0,0,0,0,0.1,0
	c0.1,0.1,0.1,0.1,0.2,0.1c0,0,0,0,0.1,0c0.1,0.1,0.1,0.1,0.2,0.2c0,0,0,0,0.1,0c0.1,0.1,0.1,0.1,0.2,0.2c0,0,0,0,0.1,0
	c0.1,0.1,0.1,0.1,0.2,0.2c0,0,0,0,0.1,0c0.1,0.1,0.1,0.1,0.2,0.2c0,0,0,0,0.1,0c0.1,0.1,0.1,0.1,0.2,0.2c0,0,0,0,0.1,0
	c0.1,0.1,0.1,0.1,0.2,0.1c0,0,0,0,0.1,0c0.1,0.1,0.1,0.1,0.2,0.2c0,0,0,0,0.1,0c0.1,0.1,0.1,0.1,0.2,0.2c0,0,0,0,0.1,0
	c0.1,0.1,0.1,0.1,0.2,0.1c0,0,0,0,0.1,0c0.1,0.1,0.1,0.1,0.2,0.2c0,0,0,0,0.1,0c0.1,0.1,0.1,0.1,0.2,0.2c0,0,0,0,0.1,0
	c0.1,0.1,0.1,0.1,0.2,0.2c0,0,0,0,0.1,0c0.1,0.1,0.1,0.1,0.2,0.2c0,0,0,0,0.1,0c0.1,0.1,0.1,0.1,0.2,0.2c0,0,0,0,0.1,0
	c0.1,0.1,0.1,0.1,0.2,0.1c0,0,0,0,0.1,0c0.1,0.1,0.1,0.1,0.2,0.2c0,0,0,0,0.1,0c0.1,0.1,0.1,0.1,0.2,0.2c0,0,0,0,0.1,0
	c0.1,0.1,0.1,0.1,0.2,0.1c0,0,0,0,0.1,0c0.1,0.1,0.1,0.1,0.2,0.2c0,0,0,0,0.1,0c0.1,0.1,0.1,0.1,0.2,0.2c0,0,0,0,0.1,0
	c0.1,0.1,0.1,0.1,0.2,0.2c0,0,0,0,0.1,0c0.1,0.1,0.1,0.1,0.2,0.2c0,0,0,0,0.1,0c0.1,0.1,0.1,0.1,0.2,0.2c0,0,0,0,0.1,0
	c0.1,0.1,0.1,0.1,0.2,0.2c0,0,0,0,0.1,0c0.1,0.1,0.1,0.1,0.2,0.2c0,0,0,0,0.1,0c0.1,0.1,0.1,0.1,0.2,0.2c0,0,0,0,0.1,0
	c0.1,0.1,0.1,0.1,0.2,0.2c0,0,0,0,0.1,0c0.1,0.1,0.1,0.1,0.2,0.2c0,0,0,0,0.1,0c0.1,0.1,0.1,0.1,0.2,0.1c0,0,0,0,0.1,0
	c0.1,0.1,0.1,0.1,0.2,0.2c0,0,0,0,0.1,0c0.1,0.1,0.1,0.1,0.2,0.2c0,0,0,0,0.1,0c0.1,0.1,0.1,0.1,0.2,0.1c0,0,0,0,0.1,0
	c0.1,0.1,0.1,0.1,0.2,0.2c0,0,0,0,0.1,0c0.1,0.1,0.1,0.1,0.2,0.2c0,0,0,0,0.1,0c0.1,0.1,0.1,0.1,0.2,0.2c0,0,0,0,0.1,0
	c0.1,0.1,0.1,0.1,0.2,0.2c0,0,0,0,0.1,0c0.1,0.1,0.1,0.1,0.2,0.2c0,0,0,0,0.1,0c0.1,0.1,0.1,0.1,0.2,0.2c0,0,0,0,0.1,0
	c0.1,0.1,0.1,0.1,0.2,0.2c0,0,0,0,0.1,0c0.1,0.1,0.1,0.1,0.2,0.2c0,0,0,0,0.1,0c0.1,0.1,0.1,0.1,0.2,0.1c0,0,0,0,0.1,0
	c0.1,0.1,0.1,0.1,0.2,0.2c0,0,0,0,0.1,0c0.1,0.1,0.1,0.1,0.2,0.2c0,0,0,0,0.1,0c0.1,0.1,0.1,0.1,0.2,0.1c0,0,0,0,0.1,0
	c0.1,0.1,0.1,0.1,0.2,0.2c0,0,0,0,0.1,0c0.1,0.1,0.1,0.1,0.2,0.2c0,0,0,0,0.1,0c0.1,0.1,0.1,0.1,0.2,0.2c0,0,0,0,0.1,0
	c0.1,0.1,0.1,0.1,0.2,0.2c0,0,0,0,0.1,0c0.1,0.1,0.1,0.1,0.2,0.2c0,0,0,0,0.1,0c0.1,0.1,0.1,0.1,0.2,0.1c0,0,0,0,0.1,0
	c0.1,0.1,0.1,0.1,0.2,0.2c0,0,0,0,0.1,0c0.1,0.1,0.1,0.1,0.2,0.2c0,0,0,0,0.1,0c0.1,0.1,0.1,0.1,0.2,0.1c0,0,0,0,0.1,0
	c0.1,0.1,0.1,0.1,0.2,0.2c0,0,0,0,0.1,0c0.1,0.1,0.1,0.1,0.2,0.1c0,0,0,0,0.1,0c0.1,0.1,0.1,0.1,0.2,0.2c0,0,0,0,0.1,0
	c0.1,0.1,0.1,0.1,0.2,0.2c0,0,0,0,0.1,0c0.1,0.1,0.1,0.1,0.2,0.2c0,0,0,0,0.1,0c0.1,0.1,0.1,0.1,0.2,0.2c0,0,0,0,0.1,0
	c0.1,0.1,0.1,0.1,0.2,0.2c0,0,0,0,0.1,0c0.1,0.1,0.1,0.1,0.2,0.2c0,0,0,0,0.1,0c0.1,0.1,0.1,0.1,0.2,0.2c0,0,0,0,0.1,0
	c0.1,0.1,0.1,0.1,0.2,0.2c0,0,0,0,0.1,0c0.1,0.1,0.1,0.1,0.2,0.1c0,0,0,0,0.1,0c0.1,0.1,0.1,0.1,0.2,0.2c0,0,0,0,0.1,0
	c0.1,0.1,0.1,0.1,0.2,0.2c0,0,0,0,0.1,0c0.1,0.1,0.1,0.1,0.2,0.1c0,0,0,0,0.1,0c0.1,0.1,0.1,0.1,0.2,0.2c0,0,0,0,0.1,0
	c0.1,0.1,0.1,0.1,0.2,0.2c0,0,0,0,0.1,0c0.1,0.1,0.1,0.1,0.2,0.2c0,0,0,0,0.1,0c0.1,0.1,0.1,0.1,0.2,0.2c0,0,0,0,0.1,0
	c0.1,0.1,0.1,0.1,0.2,0.2c0,0,0,0,0.1,0c0.1,0.1,0.1,0.1,0.2,0.1c0,0,0,0,0.1,0.1c3.2,2.7,6.3,3.3,8.4,3.3c4.9,0,9-3,11.1-7.9
	c5.1-11.7,11.6-25.4,20.5-42.7c3.2-0.7,6.2-1.4,9.2-1.9c0.6,8.2,3.1,15.6,7.8,21.7c1.8,2.3,3.6,4.3,5.5,6c0.6,0.6,1.3,1.1,2,1.6
	c0.1,0.1,0.2,0.1,0.2,0.2c0.1,0.1,0.2,0.1,0.2,0.2c0.1,0.1,0.2,0.1,0.2,0.2c0.1,0.1,0.2,0.1,0.2,0.2c0.1,0.1,0.2,0.1,0.2,0.2
	c0.1,0.1,0.2,0.1,0.2,0.2c0.1,0.1,0.2,0.1,0.2,0.2c0.1,0.1,0.2,0.1,0.2,0.2c0.1,0.1,0.2,0.1,0.2,0.2c0.1,0.1,0.2,0.1,0.2,0.2
	c0.1,0.1,0.2,0.1,0.2,0.2c0.1,0.1,0.2,0.1,0.2,0.2c0.1,0.1,0.2,0.1,0.2,0.2c0.1,0.1,0.2,0.1,0.2,0.2c0.1,0.1,0.2,0.1,0.2,0.2
	c0.1,0.1,0.2,0.1,0.2,0.2c0.1,0.1,0.2,0.1,0.2,0.2c0.1,0.1,0.2,0.1,0.2,0.2c0.1,0.1,0.2,0.1,0.2,0.2c0.1,0.1,0.2,0.1,0.2,0.2
	c0.1,0.1,0.2,0.1,0.2,0.2c0.1,0.1,0.2,0.1,0.2,0.2c0.1,0.1,0.2,0.1,0.2,0.2c0.1,0.1,0.2,0.1,0.2,0.2c0.1,0.1,0.2,0.1,0.2,0.2
	c0.1,0.1,0.2,0.1,0.2,0.2c0.1,0.1,0.2,0.1,0.2,0.2c0.1,0.1,0.2,0.1,0.2,0.2c0.1,0.1,0.2,0.1,0.2,0.2c0.1,0.1,0.2,0.1,0.2,0.2
	c0.1,0.1,0.2,0.1,0.2,0.2c0.1,0.1,0.2,0.1,0.2,0.2c0.1,0.1,0.2,0.1,0.2,0.2c0.1,0.1,0.2,0.1,0.2,0.2c0.1,0.1,0.2,0.1,0.2,0.2
	c0.1,0.1,0.2,0.1,0.2,0.2c0.1,0.1,0.2,0.1,0.2,0.2c0.1,0.1,0.2,0.1,0.2,0.2c0.1,0.1,0.2,0.1,0.2,0.2c0.1,0.1,0.2,0.1,0.2,0.2
	c0.1,0.1,0.2,0.1,0.2,0.2c0.1,0.1,0.2,0.1,0.2,0.2c0.1,0.1,0.2,0.1,0.2,0.2c0.1,0.1,0.2,0.1,0.2,0.2c0.1,0.1,0.2,0.1,0.2,0.2
	c0.1,0.1,0.2,0.1,0.2,0.2c0.1,0.1,0.2,0.1,0.2,0.2c0.1,0.1,0.2,0.1,0.2,0.2c0.1,0.1,0.2,0.1,0.2,0.2c0.1,0.1,0.2,0.1,0.2,0.2
	c0.1,0.1,0.2,0.1,0.2,0.2c0.1,0.1,0.2,0.1,0.2,0.2c0.1,0.1,0.2,0.1,0.2,0.2c0.1,0.1,0.2,0.1,0.2,0.2c0.1,0.1,0.2,0.1,0.2,0.2
	c0.1,0.1,0.2,0.1,0.2,0.2c0.1,0.1,0.2,0.1,0.2,0.2c0.1,0.1,0.2,0.1,0.2,0.2c0.1,0.1,0.2,0.1,0.2,0.2c0.1,0.1,0.2,0.1,0.2,0.2
	c0.1,0.1,0.2,0.1,0.2,0.2c0.1,0.1,0.2,0.1,0.2,0.2c0.1,0.1,0.2,0.1,0.2,0.2c0.1,0.1,0.2,0.1,0.2,0.2c0.1,0.1,0.2,0.1,0.2,0.2
	c0.1,0.1,0.2,0.1,0.2,0.2c0.1,0.1,0.2,0.1,0.2,0.2c0.1,0.1,0.2,0.1,0.2,0.2c0.1,0.1,0.2,0.1,0.2,0.2c0.1,0.1,0.2,0.1,0.2,0.2
	c0.1,0.1,0.2,0.1,0.2,0.2c0.1,0.1,0.2,0.1,0.2,0.2c0.1,0.1,0.2,0.1,0.2,0.2c0.1,0.1,0.2,0.1,0.2,0.2c0.1,0.1,0.2,0.1,0.2,0.2
	c0.1,0.1,0.2,0.1,0.2,0.2c0.1,0.1,0.2,0.1,0.2,0.2c0.1,0.1,0.2,0.1,0.2,0.2c0.7,0.5,1.3,1,2,1.5c6.8,4.8,13.6,6,18.8,6
	c3.7,0,7.5-0.6,11.1-1.8c9.4-3,18.4-10.3,26.1-21c0.1,0.1,0.2,0.1,0.2,0.2c0.1,0.1,0.2,0.1,0.2,0.2c0.1,0.1,0.2,0.1,0.2,0.2
	c0.1,0.1,0.2,0.1,0.2,0.2c0.1,0.1,0.2,0.1,0.2,0.2c0.1,0.1,0.2,0.1,0.2,0.2c0.1,0.1,0.2,0.1,0.2,0.2c0.1,0.1,0.2,0.1,0.2,0.2
	c0.1,0.1,0.2,0.1,0.2,0.2c0.1,0.1,0.2,0.1,0.2,0.2c0.1,0.1,0.2,0.1,0.2,0.2c0.1,0.1,0.2,0.1,0.2,0.2c0.1,0.1,0.2,0.1,0.2,0.2
	c0.1,0.1,0.2,0.1,0.2,0.2c0.1,0.1,0.2,0.1,0.2,0.2c0.1,0.1,0.2,0.1,0.2,0.2c0.1,0.1,0.2,0.1,0.2,0.2c0.1,0.1,0.2,0.1,0.2,0.2
	c0.1,0.1,0.2,0.1,0.2,0.2c0.1,0.1,0.2,0.1,0.2,0.2c0.1,0.1,0.2,0.1,0.2,0.2c0.1,0.1,0.2,0.1,0.2,0.2c0.1,0.1,0.2,0.1,0.2,0.2
	c0.1,0.1,0.2,0.1,0.2,0.2c0.1,0.1,0.2,0.1,0.2,0.2c0.1,0.1,0.2,0.1,0.2,0.2c0.1,0.1,0.2,0.1,0.2,0.2c0.1,0.1,0.2,0.1,0.2,0.2
	c0.1,0.1,0.2,0.1,0.2,0.2c0.1,0.1,0.2,0.1,0.2,0.2c0.1,0.1,0.2,0.1,0.2,0.2c0.1,0.1,0.2,0.1,0.2,0.2c0.1,0.1,0.2,0.1,0.2,0.2
	c0.1,0.1,0.2,0.1,0.2,0.2c0.1,0.1,0.2,0.1,0.2,0.2c0.1,0.1,0.2,0.1,0.2,0.2c0.1,0.1,0.2,0.1,0.2,0.2c0.1,0.1,0.2,0.1,0.2,0.2
	c0.1,0.1,0.2,0.1,0.2,0.2c0.1,0.1,0.2,0.1,0.2,0.2c0.1,0.1,0.2,0.1,0.2,0.2c0.1,0.1,0.2,0.1,0.2,0.2c0.1,0.1,0.2,0.1,0.2,0.2
	c0.1,0.1,0.2,0.1,0.2,0.2c0.1,0.1,0.2,0.1,0.2,0.2c0.1,0.1,0.2,0.1,0.2,0.2c0.1,0.1,0.2,0.1,0.2,0.2c0.1,0.1,0.2,0.1,0.2,0.2
	c0.1,0.1,0.2,0.1,0.2,0.2c0.1,0.1,0.2,0.1,0.2,0.2c0.1,0.1,0.2,0.1,0.2,0.2c0.1,0.1,0.2,0.1,0.2,0.2c0.1,0.1,0.2,0.1,0.2,0.2
	c0.1,0.1,0.2,0.1,0.2,0.2c0.1,0.1,0.2,0.1,0.2,0.2c0.1,0.1,0.2,0.1,0.2,0.2c0.1,0.1,0.2,0.1,0.2,0.2c0.1,0.1,0.2,0.1,0.2,0.2
	c0.1,0.1,0.2,0.1,0.2,0.2c0.1,0.1,0.2,0.1,0.2,0.2c0.1,0.1,0.2,0.1,0.2,0.2c0.1,0.1,0.2,0.1,0.2,0.2c0.1,0.1,0.2,0.1,0.2,0.2
	c0.1,0.1,0.2,0.1,0.2,0.2c0.1,0.1,0.2,0.1,0.2,0.2c0.1,0.1,0.2,0.1,0.2,0.2c0.1,0.1,0.2,0.1,0.2,0.2c0.1,0.1,0.2,0.1,0.2,0.2
	c0.1,0.1,0.2,0.1,0.2,0.2c0.1,0.1,0.2,0.1,0.2,0.2c0.1,0.1,0.2,0.1,0.2,0.2c0.1,0.1,0.2,0.1,0.2,0.2c0.1,0.1,0.2,0.1,0.2,0.2
	c0.1,0.1,0.2,0.1,0.2,0.2c0.1,0.1,0.2,0.1,0.2,0.2c0.1,0.1,0.2,0.1,0.2,0.2c0.1,0.1,0.2,0.1,0.2,0.2c0.1,0.1,0.2,0.1,0.2,0.2
	c0.1,0.1,0.2,0.1,0.2,0.2c6,4.7,13,7.2,20.5,7.2c0,0,0,0,0,0c3.8,0,7.6-0.6,11.2-1.8c7.9-2.6,15.2-8.2,21.4-15.3
	c0,0,0.1,0.1,0.1,0.1c0.1,0.1,0.2,0.1,0.2,0.2c0.1,0.1,0.2,0.1,0.2,0.2c0.1,0.1,0.2,0.1,0.2,0.2c0.1,0.1,0.2,0.1,0.2,0.2
	c0.1,0.1,0.2,0.1,0.2,0.2c0.1,0.1,0.2,0.1,0.2,0.2c0.1,0.1,0.2,0.1,0.2,0.2c0.1,0.1,0.2,0.1,0.2,0.2c0.1,0.1,0.2,0.1,0.2,0.2
	c0.1,0.1,0.2,0.1,0.2,0.2c0.1,0.1,0.2,0.1,0.2,0.2c0.1,0.1,0.2,0.1,0.2,0.2c0.1,0.1,0.2,0.1,0.2,0.2c0.1,0.1,0.2,0.1,0.2,0.2
	c0.1,0.1,0.2,0.1,0.2,0.2c0.1,0.1,0.2,0.1,0.2,0.2c0.1,0.1,0.2,0.1,0.2,0.2c0.1,0.1,0.2,0.1,0.2,0.2c0.1,0.1,0.2,0.1,0.2,0.2
	c0.1,0.1,0.2,0.1,0.2,0.2c0.1,0.1,0.2,0.1,0.2,0.2c0.1,0.1,0.2,0.1,0.2,0.2c0.1,0.1,0.2,0.1,0.2,0.2c0.1,0.1,0.2,0.1,0.2,0.2
	c0.1,0.1,0.2,0.1,0.2,0.2c0.1,0.1,0.2,0.1,0.2,0.2c0.1,0.1,0.2,0.1,0.2,0.2c0.1,0.1,0.2,0.1,0.2,0.2c0.1,0.1,0.2,0.1,0.2,0.2
	c0.1,0.1,0.2,0.1,0.2,0.2c0.1,0.1,0.2,0.1,0.2,0.2c0.1,0.1,0.2,0.1,0.2,0.2c0.1,0.1,0.2,0.1,0.2,0.2c0.1,0.1,0.2,0.1,0.2,0.2
	c0.1,0.1,0.2,0.1,0.2,0.2c0.1,0.1,0.2,0.1,0.2,0.2c0.1,0.1,0.2,0.1,0.2,0.2c0.1,0.1,0.2,0.1,0.2,0.2c0.1,0.1,0.2,0.1,0.2,0.2
	c0.1,0.1,0.2,0.1,0.2,0.2c0.1,0.1,0.2,0.1,0.2,0.2c0.1,0.1,0.2,0.1,0.2,0.2c0.1,0.1,0.2,0.1,0.2,0.2c0.1,0.1,0.2,0.1,0.2,0.2
	c0.1,0.1,0.2,0.1,0.2,0.2c0.1,0.1,0.2,0.1,0.2,0.2c0.1,0.1,0.2,0.1,0.2,0.2c0.1,0.1,0.2,0.1,0.2,0.2c0.1,0.1,0.2,0.1,0.2,0.2
	c0.1,0.1,0.2,0.1,0.2,0.2c0.1,0.1,0.2,0.1,0.2,0.2c0.1,0.1,0.2,0.1,0.2,0.2c0.1,0.1,0.2,0.1,0.2,0.2c0.1,0.1,0.2,0.1,0.2,0.2
	c0.1,0.1,0.2,0.1,0.2,0.2c0.1,0.1,0.2,0.1,0.2,0.2c0.1,0.1,0.2,0.1,0.2,0.2c0.1,0.1,0.2,0.1,0.2,0.2c4.7,3.8,10.6,5.8,17.2,5.8
	c8.8,0,16.6-3.9,22.9-8.6c0,0,0.1,0,0.1,0.1c0.1,0.1,0.2,0.1,0.2,0.2c0.1,0.1,0.2,0.1,0.2,0.2c0.1,0.1,0.2,0.1,0.2,0.2
	c0.1,0.1,0.2,0.1,0.2,0.2c0.1,0.1,0.2,0.1,0.2,0.2c0.1,0.1,0.2,0.1,0.2,0.2c0.1,0.1,0.2,0.1,0.2,0.2c0.1,0.1,0.2,0.1,0.2,0.2
	c0.1,0.1,0.2,0.1,0.2,0.2c0.1,0.1,0.2,0.1,0.2,0.2c0.1,0.1,0.2,0.1,0.2,0.2c0.1,0.1,0.2,0.1,0.2,0.2c0.1,0.1,0.2,0.1,0.2,0.2
	c4.6,3.9,10.8,6.2,18.4,6.6c0.5,0,1,0,1.5,0c7.9,0,17.6-3.8,26.2-11.2c0,0,0,0,0,0c0.1,0.1,0.2,0.1,0.2,0.2c0.1,0.1,0.2,0.1,0.2,0.2
	c0.1,0.1,0.2,0.1,0.2,0.2c0.1,0.1,0.2,0.1,0.2,0.2c0.1,0.1,0.2,0.1,0.2,0.2c0.1,0.1,0.2,0.1,0.2,0.2c0.1,0.1,0.2,0.1,0.2,0.2
	c0.1,0.1,0.2,0.1,0.2,0.2c0.1,0.1,0.2,0.1,0.2,0.2c0.1,0.1,0.2,0.1,0.2,0.2c0.1,0.1,0.2,0.1,0.2,0.2c0.1,0.1,0.2,0.1,0.2,0.2
	c0.1,0.1,0.2,0.1,0.2,0.2c0.1,0.1,0.2,0.1,0.2,0.2c0.1,0.1,0.2,0.1,0.2,0.2c0.1,0.1,0.2,0.1,0.2,0.2c0.1,0.1,0.2,0.1,0.2,0.2
	c0.1,0.1,0.2,0.1,0.2,0.2c0.1,0.1,0.2,0.1,0.2,0.2c0.1,0.1,0.2,0.1,0.2,0.2c0.1,0.1,0.2,0.1,0.2,0.2c0.1,0.1,0.2,0.1,0.2,0.2
	c0.1,0.1,0.2,0.1,0.2,0.2c0.1,0.1,0.2,0.1,0.2,0.2c0.1,0.1,0.2,0.1,0.2,0.2c0.1,0.1,0.2,0.1,0.2,0.2c0.1,0.1,0.2,0.1,0.2,0.2
	c0.1,0.1,0.2,0.1,0.2,0.2c0.1,0.1,0.2,0.1,0.2,0.2c0.1,0.1,0.2,0.1,0.2,0.2c0.1,0.1,0.2,0.1,0.2,0.2c0.1,0.1,0.2,0.1,0.2,0.2
	c0.1,0.1,0.2,0.1,0.2,0.2c0.1,0,0.1,0.1,0.2,0.1c2.4,2.1,5.1,3.1,7.9,3.1c0,0,0,0,0,0c1.8,0,7.9-0.6,10.9-7.9
	c13.1-30.6,27.2-56,38.9-76.7c-6,12.1-11.2,23.7-15,33.8c-2.6,7.1-3.6,13.3,0.4,20.8c0.4,0.7,0.8,1.5,1.1,2.2
	c1.2,2.5,2.6,5.2,4.6,7.6c1.1,1.3,2.2,2.4,3.5,3.3c0.1,0.1,0.1,0.1,0.2,0.2c0.1,0.1,0.2,0.1,0.2,0.2c0.1,0.1,0.2,0.1,0.2,0.2
	c0.1,0.1,0.2,0.1,0.2,0.2c0.1,0.1,0.2,0.1,0.2,0.2c0.1,0.1,0.2,0.1,0.2,0.2c0.1,0.1,0.2,0.1,0.2,0.2c0.1,0.1,0.2,0.1,0.2,0.2
	c0.1,0.1,0.2,0.1,0.2,0.2c0.1,0.1,0.2,0.1,0.2,0.2c0.1,0.1,0.2,0.1,0.2,0.2c0.1,0.1,0.2,0.1,0.2,0.2c0.1,0.1,0.2,0.1,0.2,0.2
	c0.1,0.1,0.2,0.1,0.2,0.2c0.1,0.1,0.2,0.1,0.2,0.2c0.1,0.1,0.2,0.1,0.2,0.2c0.1,0.1,0.2,0.1,0.2,0.2c0.1,0.1,0.2,0.1,0.2,0.2
	c0.1,0.1,0.2,0.1,0.2,0.2c0.1,0.1,0.2,0.1,0.2,0.2c0.1,0.1,0.2,0.1,0.2,0.2c0.1,0.1,0.2,0.1,0.2,0.2c0.1,0.1,0.2,0.1,0.2,0.2
	c0.1,0.1,0.2,0.1,0.2,0.2c0.1,0.1,0.2,0.1,0.2,0.2c0.1,0.1,0.2,0.1,0.2,0.2c0.1,0.1,0.2,0.1,0.2,0.2c0.1,0.1,0.2,0.1,0.2,0.2
	c0.1,0.1,0.2,0.1,0.2,0.2c0.1,0.1,0.2,0.1,0.2,0.2c0.1,0.1,0.2,0.1,0.2,0.2c0.1,0.1,0.2,0.1,0.2,0.2c0.1,0.1,0.2,0.1,0.2,0.2
	c0.1,0.1,0.2,0.1,0.2,0.2c0.1,0.1,0.2,0.1,0.2,0.2c0.1,0.1,0.2,0.1,0.2,0.2c0.1,0.1,0.2,0.1,0.2,0.2c0.1,0.1,0.2,0.1,0.2,0.2
	c0.1,0.1,0.2,0.1,0.2,0.2c0.1,0.1,0.2,0.1,0.2,0.2c0.1,0.1,0.2,0.1,0.2,0.2c0.1,0.1,0.2,0.1,0.2,0.2c0.1,0.1,0.2,0.1,0.2,0.2
	c0.1,0.1,0.2,0.1,0.2,0.2c0.1,0.1,0.2,0.1,0.2,0.2c0.1,0.1,0.2,0.1,0.2,0.2c0.1,0.1,0.2,0.1,0.2,0.2c0.1,0.1,0.2,0.1,0.2,0.2
	c0.1,0.1,0.2,0.1,0.2,0.2c0.1,0.1,0.2,0.1,0.2,0.2c0.1,0.1,0.2,0.1,0.2,0.2c0.1,0.1,0.2,0.1,0.2,0.2c0.1,0.1,0.2,0.1,0.2,0.2
	c0.1,0.1,0.2,0.1,0.2,0.2c0.1,0.1,0.2,0.1,0.2,0.2c0.1,0.1,0.2,0.1,0.2,0.2c0.1,0.1,0.2,0.1,0.2,0.2c0.1,0.1,0.2,0.1,0.2,0.2
	c0.1,0.1,0.2,0.1,0.2,0.2c0.1,0.1,0.2,0.1,0.2,0.2c0.1,0.1,0.2,0.1,0.2,0.2c0.1,0.1,0.2,0.1,0.2,0.2c0.1,0.1,0.2,0.1,0.2,0.2
	c0.1,0.1,0.2,0.1,0.2,0.2c0.1,0.1,0.2,0.1,0.2,0.2c0.1,0.1,0.2,0.1,0.2,0.2c0.1,0.1,0.2,0.1,0.2,0.2c0.1,0.1,0.2,0.1,0.2,0.2
	c0.1,0.1,0.2,0.1,0.2,0.2c0.1,0.1,0.2,0.1,0.2,0.2c0.1,0.1,0.2,0.1,0.2,0.2c0.1,0.1,0.2,0.1,0.2,0.2c0.1,0.1,0.2,0.1,0.2,0.2
	c0.1,0.1,0.2,0.1,0.2,0.2c0.1,0.1,0.2,0.1,0.2,0.2c0.1,0.1,0.2,0.1,0.2,0.2c0.1,0,0.1,0.1,0.2,0.1c3,2.6,6.5,4,10.5,4
	c2.4,0,4.7-0.5,6.6-1c14.6-3.9,35.2-8.5,45.3-8.5l0.7,0c5.9,0,9-3.1,10.4-4.9c1.6-2.2,3.2-6.1,1.3-11.6l-0.1-0.3
	c-1.3-3.5-3.5-7.4-7.3-10.5c-0.1-0.1-0.2-0.1-0.2-0.2c-0.1-0.1-0.2-0.1-0.2-0.2c-0.1-0.1-0.2-0.1-0.2-0.2c-0.1-0.1-0.2-0.1-0.2-0.2
	c-0.1-0.1-0.2-0.1-0.2-0.2c-0.1-0.1-0.2-0.1-0.2-0.2c-0.1-0.1-0.2-0.1-0.2-0.2c-0.1-0.1-0.2-0.1-0.2-0.2c-0.1-0.1-0.2-0.1-0.2-0.2
	c-0.1-0.1-0.2-0.1-0.2-0.2c-0.1-0.1-0.2-0.1-0.2-0.2c-0.1-0.1-0.2-0.1-0.2-0.2c-0.1-0.1-0.2-0.1-0.2-0.2c-0.1-0.1-0.2-0.1-0.2-0.2
	c-0.1-0.1-0.2-0.1-0.2-0.2c-0.1-0.1-0.2-0.1-0.2-0.2c-0.1-0.1-0.2-0.1-0.2-0.2c-0.1-0.1-0.2-0.1-0.2-0.2c-0.1-0.1-0.2-0.1-0.2-0.2
	c-0.1-0.1-0.2-0.1-0.2-0.2c-0.1-0.1-0.2-0.1-0.2-0.2c-0.1-0.1-0.2-0.1-0.2-0.2c-0.1-0.1-0.2-0.1-0.2-0.2c-0.1-0.1-0.2-0.1-0.2-0.2
	c-0.1-0.1-0.2-0.1-0.2-0.2c-0.1-0.1-0.2-0.1-0.2-0.2c-0.1-0.1-0.2-0.1-0.2-0.2c-0.1-0.1-0.2-0.1-0.2-0.2c-0.1-0.1-0.2-0.1-0.2-0.2
	c-0.1-0.1-0.2-0.1-0.2-0.2c-0.1-0.1-0.2-0.1-0.2-0.2c-0.1-0.1-0.2-0.1-0.2-0.2c-0.1-0.1-0.2-0.1-0.2-0.2c-0.1-0.1-0.2-0.1-0.2-0.2
	c-0.1-0.1-0.2-0.1-0.2-0.2c-0.1-0.1-0.2-0.1-0.2-0.2c-0.1-0.1-0.2-0.1-0.2-0.2c-0.1-0.1-0.2-0.1-0.2-0.2c-0.1-0.1-0.2-0.1-0.2-0.2
	c-0.1-0.1-0.2-0.1-0.2-0.2c-0.1-0.1-0.2-0.1-0.2-0.2c-0.1-0.1-0.2-0.1-0.2-0.2c-0.1-0.1-0.2-0.1-0.2-0.2c-0.1-0.1-0.2-0.1-0.2-0.2
	c-0.1-0.1-0.2-0.1-0.2-0.2c-0.1-0.1-0.2-0.1-0.2-0.2c-0.1-0.1-0.2-0.1-0.2-0.2c-0.1-0.1-0.2-0.1-0.2-0.2c-0.1-0.1-0.2-0.1-0.2-0.2
	c-0.1-0.1-0.2-0.1-0.2-0.2c-0.1-0.1-0.2-0.1-0.2-0.2c-0.1-0.1-0.2-0.1-0.2-0.2c-0.1-0.1-0.2-0.1-0.2-0.2c-0.1-0.1-0.2-0.1-0.2-0.2
	c-0.1-0.1-0.2-0.1-0.2-0.2c-0.1-0.1-0.2-0.1-0.2-0.2c-0.1-0.1-0.2-0.1-0.2-0.2c-0.1-0.1-0.2-0.1-0.2-0.2c-0.1-0.1-0.2-0.1-0.2-0.2
	c-0.1-0.1-0.2-0.1-0.2-0.2c-0.1-0.1-0.2-0.1-0.2-0.2c-0.1-0.1-0.2-0.1-0.2-0.2c-0.1-0.1-0.2-0.1-0.2-0.2c-0.1-0.1-0.2-0.1-0.2-0.2
	c-0.1-0.1-0.2-0.1-0.2-0.2c-0.1-0.1-0.2-0.1-0.2-0.2c-0.1-0.1-0.2-0.1-0.2-0.2c-0.1-0.1-0.2-0.1-0.2-0.2c-0.1-0.1-0.2-0.1-0.2-0.2
	c-0.1-0.1-0.2-0.1-0.2-0.2c-0.1-0.1-0.2-0.1-0.2-0.2c-0.1-0.1-0.2-0.1-0.2-0.2c-0.1-0.1-0.2-0.1-0.2-0.2c-0.1-0.1-0.2-0.1-0.2-0.2
	c-0.1-0.1-0.2-0.1-0.2-0.2c-0.1-0.1-0.2-0.1-0.2-0.2c-0.1-0.1-0.2-0.1-0.2-0.2c-0.1-0.1-0.2-0.1-0.2-0.2c-0.1-0.1-0.2-0.1-0.2-0.2
	c-0.1-0.1-0.2-0.1-0.2-0.2c-0.5-0.4-1.1-0.8-1.7-1.2c5.2-1,10.4-1.8,15.4-2.3c2.8,11.4,8.5,21.3,16.3,27.7c0.4,0.3,0.8,0.7,1.2,1
	c0.1,0.1,0.2,0.1,0.2,0.2c0.1,0.1,0.2,0.1,0.2,0.2c0.1,0.1,0.2,0.1,0.2,0.2c0.1,0.1,0.2,0.1,0.2,0.2c0.1,0.1,0.2,0.1,0.2,0.2
	c0.1,0.1,0.2,0.1,0.2,0.2c0.1,0.1,0.2,0.1,0.2,0.2c0.1,0.1,0.2,0.1,0.2,0.2c0.1,0.1,0.2,0.1,0.2,0.2c0.1,0.1,0.2,0.1,0.2,0.2
	c0.1,0.1,0.2,0.1,0.2,0.2c0.1,0.1,0.2,0.1,0.2,0.2c0.1,0.1,0.2,0.1,0.2,0.2c0.1,0.1,0.2,0.1,0.2,0.2c0.1,0.1,0.2,0.1,0.2,0.2
	c0.1,0.1,0.2,0.1,0.2,0.2c0.1,0.1,0.2,0.1,0.2,0.2c0.1,0.1,0.2,0.1,0.2,0.2c0.1,0.1,0.2,0.1,0.2,0.2c0.1,0.1,0.2,0.1,0.2,0.2
	c0.1,0.1,0.2,0.1,0.2,0.2c0.1,0.1,0.2,0.1,0.2,0.2c0.1,0.1,0.2,0.1,0.2,0.2c0.1,0.1,0.2,0.1,0.2,0.2c0.1,0.1,0.2,0.1,0.2,0.2
	c0.1,0.1,0.2,0.1,0.2,0.2c0.1,0.1,0.2,0.1,0.2,0.2c0.1,0.1,0.2,0.1,0.2,0.2c0.1,0.1,0.2,0.1,0.2,0.2c0.1,0.1,0.2,0.1,0.2,0.2
	c0.1,0.1,0.2,0.1,0.2,0.2c0.1,0.1,0.2,0.1,0.2,0.2c0.1,0.1,0.2,0.1,0.2,0.2c0.1,0.1,0.2,0.1,0.2,0.2c0.1,0.1,0.2,0.1,0.2,0.2
	c0.1,0.1,0.2,0.1,0.2,0.2c0.1,0.1,0.2,0.1,0.2,0.2c0.1,0.1,0.2,0.1,0.2,0.2c0.1,0.1,0.2,0.1,0.2,0.2c0.1,0.1,0.2,0.1,0.2,0.2
	c0.1,0.1,0.2,0.1,0.2,0.2c0.1,0.1,0.2,0.1,0.2,0.2c0.1,0.1,0.2,0.1,0.2,0.2c0.1,0.1,0.2,0.1,0.2,0.2c0.1,0.1,0.2,0.1,0.2,0.2
	c0.1,0.1,0.2,0.1,0.2,0.2c0.1,0.1,0.2,0.1,0.2,0.2c0.1,0.1,0.2,0.1,0.2,0.2c0.1,0.1,0.2,0.1,0.2,0.2c0.1,0.1,0.2,0.1,0.2,0.2
	c0.1,0.1,0.2,0.1,0.2,0.2c0.1,0.1,0.2,0.1,0.2,0.2c0.1,0.1,0.2,0.1,0.2,0.2c0.1,0.1,0.2,0.1,0.2,0.2c0.1,0.1,0.2,0.1,0.2,0.2
	c0.1,0.1,0.2,0.1,0.2,0.2c0.1,0.1,0.2,0.1,0.2,0.2c0.1,0.1,0.2,0.1,0.2,0.2c0.1,0.1,0.2,0.1,0.2,0.2c0.1,0.1,0.2,0.1,0.2,0.2
	c0.1,0.1,0.2,0.1,0.2,0.2c0.1,0.1,0.2,0.1,0.2,0.2c0.1,0.1,0.2,0.1,0.2,0.2c0.1,0.1,0.2,0.1,0.2,0.2c0.1,0.1,0.2,0.1,0.2,0.2
	c0.1,0.1,0.2,0.1,0.2,0.2c0.1,0.1,0.2,0.1,0.2,0.2c0.1,0.1,0.2,0.1,0.2,0.2c0.1,0.1,0.2,0.1,0.2,0.2c0.1,0.1,0.2,0.1,0.2,0.2
	c0.1,0.1,0.2,0.1,0.2,0.2c0.1,0.1,0.2,0.1,0.2,0.2c0.1,0.1,0.2,0.1,0.2,0.2c0.1,0.1,0.2,0.1,0.2,0.2c0.1,0.1,0.2,0.1,0.2,0.2
	c0.1,0.1,0.2,0.1,0.2,0.2c0.1,0.1,0.2,0.1,0.2,0.2c0.1,0.1,0.2,0.1,0.2,0.2c0.1,0.1,0.2,0.1,0.3,0.2c1.7,1.3,3.4,2.5,5.3,3.5
	c6.8,3.7,14.8,5.6,23.3,5.6c11.9,0,23.4-3.8,33.3-10.9c12.6-9,28.8-29.7,21.3-49.6c-0.9-2.4-2.3-4.4-4.1-5.8
	c-0.1-0.1-0.2-0.2-0.3-0.3c-0.1-0.1-0.2-0.1-0.2-0.2c-0.1-0.1-0.2-0.1-0.2-0.2c-0.1-0.1-0.2-0.1-0.2-0.2c-0.1-0.1-0.2-0.1-0.2-0.2
	c-0.1-0.1-0.2-0.1-0.2-0.2c-0.1-0.1-0.2-0.1-0.2-0.2c-0.1-0.1-0.2-0.1-0.2-0.2c-0.1-0.1-0.2-0.1-0.2-0.2c-0.1-0.1-0.2-0.1-0.2-0.2
	c-0.1-0.1-0.2-0.1-0.2-0.2c-0.1-0.1-0.2-0.1-0.2-0.2c-0.1-0.1-0.2-0.1-0.2-0.2c-0.1-0.1-0.2-0.1-0.2-0.2c-0.1-0.1-0.2-0.1-0.2-0.2
	c-0.1-0.1-0.2-0.1-0.2-0.2c-0.1-0.1-0.2-0.1-0.2-0.2c-0.1-0.1-0.2-0.1-0.2-0.2c-0.1-0.1-0.2-0.1-0.2-0.2c-0.1-0.1-0.2-0.1-0.2-0.2
	c-0.1-0.1-0.2-0.1-0.2-0.2c-0.1-0.1-0.2-0.1-0.2-0.2c-0.1-0.1-0.2-0.1-0.2-0.2c-0.1-0.1-0.2-0.1-0.2-0.2c-0.1-0.1-0.2-0.1-0.2-0.2
	c-0.1-0.1-0.2-0.1-0.2-0.2c-0.1-0.1-0.2-0.1-0.2-0.2c-0.1-0.1-0.2-0.1-0.2-0.2c-0.1-0.1-0.2-0.1-0.2-0.2c-0.1-0.1-0.2-0.1-0.2-0.2
	c-0.1-0.1-0.2-0.1-0.2-0.2c-0.1-0.1-0.2-0.1-0.2-0.2c-0.1-0.1-0.2-0.1-0.2-0.2c-0.1-0.1-0.2-0.1-0.2-0.2c-0.1-0.1-0.2-0.1-0.2-0.2
	c-0.1-0.1-0.2-0.1-0.2-0.2c-0.1-0.1-0.2-0.1-0.2-0.2c-0.1-0.1-0.2-0.1-0.2-0.2c-0.1-0.1-0.2-0.1-0.2-0.2c-0.1-0.1-0.2-0.1-0.2-0.2
	c-0.1-0.1-0.2-0.1-0.2-0.2c-0.1-0.1-0.2-0.1-0.2-0.2c-0.1-0.1-0.2-0.1-0.2-0.2c-0.1-0.1-0.2-0.1-0.2-0.2c-0.1-0.1-0.2-0.1-0.2-0.2
	c-0.1-0.1-0.2-0.1-0.2-0.2c-0.1-0.1-0.2-0.1-0.2-0.2c-0.1-0.1-0.2-0.1-0.2-0.2c-0.1-0.1-0.2-0.1-0.2-0.2c-0.1-0.1-0.2-0.1-0.2-0.2
	c-0.1-0.1-0.2-0.1-0.2-0.2c-0.1-0.1-0.2-0.1-0.2-0.2c-0.1-0.1-0.2-0.1-0.2-0.2c-0.1-0.1-0.2-0.1-0.2-0.2c-0.1-0.1-0.2-0.1-0.2-0.2
	c-0.1-0.1-0.2-0.1-0.2-0.2c-0.1-0.1-0.2-0.1-0.2-0.2c-0.1-0.1-0.2-0.1-0.2-0.2c-0.1-0.1-0.2-0.1-0.2-0.2c-0.1-0.1-0.2-0.1-0.2-0.2
	c-0.1-0.1-0.2-0.1-0.2-0.2c-0.1-0.1-0.2-0.1-0.2-0.2c-0.1-0.1-0.2-0.1-0.2-0.2c-0.1-0.1-0.2-0.1-0.2-0.2c-0.1-0.1-0.2-0.1-0.2-0.2
	c-0.1-0.1-0.2-0.1-0.2-0.2c-0.1-0.1-0.2-0.1-0.2-0.2c-0.1-0.1-0.2-0.1-0.2-0.2c-0.1-0.1-0.2-0.1-0.2-0.2c-0.1-0.1-0.2-0.1-0.2-0.2
	c-0.1-0.1-0.2-0.1-0.2-0.2c-0.1-0.1-0.2-0.1-0.2-0.2c-0.1-0.1-0.2-0.1-0.2-0.2c-0.1-0.1-0.2-0.1-0.2-0.2c-0.1-0.1-0.2-0.1-0.2-0.2
	c-0.1-0.1-0.2-0.1-0.2-0.2c-0.1-0.1-0.2-0.1-0.2-0.2c-0.1-0.1-0.2-0.1-0.2-0.2c-0.1-0.1-0.2-0.1-0.2-0.2c-0.3-0.2-0.6-0.5-0.8-0.7
	c-2.1-1.6-4.6-2.5-7.2-2.5c-4.7,0-9,2.8-11.2,7.4c-7.6,14.9-16,24.6-23.3,29.8c0.3-11.2,3.7-26,13.1-41.6
	c4.4-7.3,9.4-13.6,14.5-18.9c1.5,4.6,4.2,8.5,8.1,11.5c0.1,0.1,0.1,0.1,0.2,0.2c0.1,0.1,0.2,0.1,0.2,0.2c0.1,0.1,0.2,0.1,0.2,0.2
	c0.1,0.1,0.2,0.1,0.2,0.2c0.1,0.1,0.2,0.1,0.2,0.2c0.1,0.1,0.2,0.1,0.2,0.2c0.1,0.1,0.2,0.1,0.2,0.2c0.1,0.1,0.2,0.1,0.2,0.2
	c0.1,0.1,0.2,0.1,0.2,0.2c0.1,0.1,0.2,0.1,0.2,0.2c0.1,0.1,0.2,0.1,0.2,0.2c0.1,0.1,0.2,0.1,0.2,0.2c0.1,0.1,0.2,0.1,0.2,0.2
	c0.1,0.1,0.2,0.1,0.2,0.2c0.1,0.1,0.2,0.1,0.2,0.2c0.1,0.1,0.2,0.1,0.2,0.2c0.1,0.1,0.2,0.1,0.2,0.2c0.1,0.1,0.2,0.1,0.2,0.2
	c0.1,0.1,0.2,0.1,0.2,0.2c0.1,0.1,0.2,0.1,0.2,0.2c0.1,0.1,0.2,0.1,0.2,0.2c0.1,0.1,0.2,0.1,0.2,0.2c0.1,0.1,0.2,0.1,0.2,0.2
	c0.1,0.1,0.2,0.1,0.2,0.2c0.1,0.1,0.2,0.1,0.2,0.2c0.1,0.1,0.2,0.1,0.2,0.2c0.1,0.1,0.2,0.1,0.2,0.2c0.1,0.1,0.2,0.1,0.2,0.2
	c0.1,0.1,0.2,0.1,0.2,0.2c0.1,0.1,0.2,0.1,0.2,0.2c0.1,0.1,0.2,0.1,0.2,0.2c0.1,0.1,0.2,0.1,0.2,0.2c0.1,0.1,0.2,0.1,0.2,0.2
	c0.1,0.1,0.2,0.1,0.2,0.2c0.1,0.1,0.2,0.1,0.2,0.2c0.1,0.1,0.2,0.1,0.2,0.2c0.1,0.1,0.2,0.1,0.2,0.2c0.1,0.1,0.2,0.1,0.2,0.2
	c0.1,0.1,0.2,0.1,0.2,0.2c0.1,0.1,0.2,0.1,0.2,0.2c0.1,0.1,0.2,0.1,0.2,0.2c0.1,0.1,0.2,0.1,0.2,0.2c0.1,0.1,0.2,0.1,0.2,0.2
	c0.1,0.1,0.2,0.1,0.2,0.2c0.1,0.1,0.2,0.1,0.2,0.2c0.1,0.1,0.2,0.1,0.2,0.2c0.1,0.1,0.2,0.1,0.2,0.2c0.1,0.1,0.2,0.1,0.2,0.2
	c0.1,0.1,0.2,0.1,0.2,0.2c0.1,0.1,0.2,0.1,0.2,0.2c0.1,0.1,0.2,0.1,0.2,0.2c0.1,0.1,0.2,0.1,0.2,0.2c0.1,0.1,0.2,0.1,0.2,0.2
	c0.1,0.1,0.2,0.1,0.2,0.2c0.1,0.1,0.2,0.1,0.2,0.2c0.1,0.1,0.2,0.1,0.2,0.2c0.1,0.1,0.2,0.1,0.2,0.2c0.1,0.1,0.2,0.1,0.2,0.2
	c0.1,0.1,0.2,0.1,0.2,0.2c0.1,0.1,0.2,0.1,0.2,0.2c0.1,0.1,0.2,0.1,0.2,0.2c0.1,0.1,0.2,0.1,0.2,0.2c0.1,0.1,0.2,0.1,0.2,0.2
	c0.1,0.1,0.2,0.1,0.2,0.2c0.1,0.1,0.2,0.1,0.2,0.2c0.1,0.1,0.2,0.1,0.2,0.2c0.1,0.1,0.2,0.1,0.2,0.2c0.1,0.1,0.2,0.1,0.2,0.2
	c0.1,0.1,0.2,0.1,0.2,0.2c0.1,0.1,0.2,0.1,0.2,0.2c0.1,0.1,0.2,0.1,0.2,0.2c0.1,0.1,0.2,0.1,0.2,0.2c0.1,0.1,0.2,0.1,0.2,0.2
	c0.1,0.1,0.2,0.1,0.2,0.2c0.1,0.1,0.2,0.1,0.2,0.2c0.1,0.1,0.2,0.1,0.2,0.2c0.1,0.1,0.2,0.1,0.2,0.2c0.1,0.1,0.2,0.1,0.2,0.2
	c0.1,0.1,0.2,0.1,0.2,0.2c0.1,0.1,0.1,0.1,0.2,0.2c0.6,0.5,1.3,1,2,1.4c2.5,1.6,5.1,2.5,7.8,2.5c5.4,0,9.9-3.3,11.9-8.6
	c0.4-1,0.8-2.1,1.2-3.2c2.2-5.8,4.7-12.4,7.2-17.8C636.7,68.2,637.5,59.5,634.7,50.6z M111.5,71.9c-2.2,1.8-4.3,3.8-6.3,6
	c2.2-3.8,4.4-7.5,6.5-11c2.7-0.5,5.4-1,8.2-1.5c0.5-0.1,0.9-0.2,1.4-0.3C118,67,114.7,69.2,111.5,71.9z M432.7,71.8
	c1.2-3,2-5.9,2.6-8.7c0.8-0.1,1.7-0.3,2.5-0.4C436.1,65.7,434.4,68.8,432.7,71.8z M493.6,92.9C493.6,92.9,493.6,92.8,493.6,92.9
	c-0.1-0.1-0.2-0.2-0.3-0.2c-0.1-0.1-0.2-0.1-0.2-0.2c-0.1-0.1-0.2-0.1-0.2-0.2c-0.1-0.1-0.2-0.1-0.2-0.2c-0.1-0.1-0.2-0.1-0.2-0.2
	c-0.1-0.1-0.2-0.1-0.2-0.2c-0.1-0.1-0.2-0.1-0.2-0.2c-0.1-0.1-0.2-0.1-0.2-0.2c-0.1,0-0.1-0.1-0.2-0.1c1.9-3.4,3.8-6.7,5.7-9.9
	C495.8,85,494.6,88.9,493.6,92.9z"/>
<g>
	<path class="st0" d="M78.5,100.2c-4,0.2-9,0.7-14.7,1.8c10.8-19.8,21.1-37.6,28.8-50.2c13.4-2,28.8-6.4,45.3-6.2
		c2.9,0,3.3-1.5,2.6-3.3c-2.9-6.8-8.6-11.2-18-11.2c-12.3,0-35.6,6.4-53.9,5.5c-2.2,0-2.9,0.9-2.4,2.6c1.1,4.4,3.5,8.8,8.6,11.2
		C55.4,82,32.3,125.1,25.7,144.5c-4.6,13.6-2.4,20.7,1.8,24.2c1.5,1.3,2.9,1.3,3.7-0.9c6.4-14.7,14.5-31.2,22.9-47.5
		c12.5-3.1,29.5-6.4,40.5-6.2c2.6,0,3.1-1.3,2.4-3.3C95,104.2,89.5,99.6,78.5,100.2z"/>
	<path class="st0" d="M251,118.9c1.1-1.1,1.1-2.6-0.9-2.2c-1.3,0.2-2.6,0.2-4.2,0.2c0.4-1.8,0.4-3.3,0.7-5.1
		c1.1-15.8-5.3-17.2-10.6-24.2c-4.4-5.9-8.1-7.7-14.7-7.3c-10.1,0.7-20,7.9-28.2,18c-6.6,8.1-15,15.4-23.8,16.7
		c0-1.1,0.2-2.2,0.2-3.3c1.1-15.8-5.5-17.2-10.6-24.2c-4.4-6.2-8.1-7.9-14.7-7.3c-13.2,1.1-26.6,13.6-35.2,28.6
		c-9.7,17.2-13.2,36.5-3.3,49.5c8.8,11.4,19.6,11.9,27.5,9.2c16.3-5.3,29.9-27.5,34.5-46.4c4.8,0,9.5-0.9,13.6-2.9
		c-5.9,14.7-6.6,29.5,1.3,40c8.6,11.4,19.8,11.9,27.7,9.2c16.1-5.3,29.7-27.5,34.3-46.2C247.4,121.4,249.6,120.5,251,118.9z
		 M145.6,136.5c-10.8,19.8-24,27.3-29.9,22.7c-6.2-4.8-2.9-25.3,6.6-41.8c4.8-8.4,11-15.8,16.9-20.5c0,9.2,7.3,17.6,14.3,21.3
		C152,123.8,149.1,129.9,145.6,136.5z M155.3,112.6c-4.4-3.3-6.2-9-5.3-15.2c0.9-6.6,5.7-7.9,6.6-0.9
		C157,100.5,156.8,106,155.3,112.6z M222.6,136.5c-10.8,19.8-24.2,27.7-29.9,22.7c-5.5-4.8-2.9-25.3,6.6-41.8
		c4.8-8.4,11-15.8,16.9-20.5c0,7.9,5.3,15.6,10.3,19.1c1.1,1.1,2.4,2,4,2.4C228.7,124,226.1,130.2,222.6,136.5z M232.3,112.8
		c-3.5-3.3-6.2-9.7-5.1-15.6c1.1-6.4,5.5-7.7,6.4-0.7C234,100.5,233.8,106,232.3,112.8z"/>
	<path class="st0" d="M450.5,45.2c2.9,0.2,3.3-1.5,2.6-3.3c-3.3-8.6-11.7-11-20.9-11.2c-12.5-0.4-49.1,7.7-68.6,6.2
		c-0.3,0-0.6,0-0.9,0c-0.2-2.3-0.8-4.3-1.5-6.2c-1.1-2.9-3.1-3.1-5.3,0c-7.9,11.2-24.6,41.1-36.5,63.8c0.2-8.1-4.2-15-13.2-15
		c-11,0-28.6,9.9-46,35.4c-18,26.4-14.1,54.3,6.4,54.3c10.3,0,20.2-8.1,27.3-16.9c0,10.3,5.9,16.9,17.8,17.6
		c12.1,0.7,25.7-11,31.7-23.1c2.9-5.9,2.6-11.7,1.8-13.6c-0.9-1.8-2.4-1.8-3.5,0.2c-7.7,15.2-19.6,29.9-28.6,30.4
		c-7.5,0.4-7.3-8.6-1.3-21.3c11-23.3,32.1-59.6,42.7-78.5c4.9-8.8,7.4-15.6,8.2-21.1c3.7,6.2,12.3,9.8,23.7,9.4
		c4-0.2,8.4-0.7,13.4-1.5c-20.5,31-44.2,78.8-49.3,96.8c-2.9,10.6-0.2,17.2,2.9,20c1.5,1.5,2.6,1.5,3.5-0.7
		c17.2-40.3,35.9-71.1,49.1-95c5.9-10.8,7.5-18,7.3-23.3C425.9,46.3,439.7,44.1,450.5,45.2z M300,129.3c-10.3,20-22.2,33-31,32.8
		c-8.6-0.2-6.2-19.4,5.7-38.3c12.1-19.4,28.2-33.2,35-33C316.1,91,312.8,104.9,300,129.3z"/>
	<path class="st0" d="M472.7,101.1c-4,0.2-9.7,0.7-15.6,1.8c10.8-19.6,21.6-38.7,30.4-51.9c13.4-2.2,28.8-6.2,44.7-5.9
		c2.6,0.4,3.1-1.1,2.4-2.9c-2.6-7.3-7.5-11-16.7-10.8c-12.3,0.2-36.5,6.6-54.8,5.5c-2.2-0.2-2.9,0.7-2.4,2.6c1.3,4.6,3.7,9,9.2,11.2
		c-18.5,28.6-40.5,69.5-50.6,96.6c-2.2,5.9-2.2,8.8-0.2,12.5c1.5,2.9,2.9,6.2,4.6,8.1c2.6,3.3,5.1,3.3,9.2,2.2
		c12.3-3.3,36.3-9,48.6-8.8c2.6,0,2.9-1.3,2.2-3.3c-2.4-6.6-7.9-10.1-18.7-9.7c-9,0.4-23.5,3.5-34.1,6.8
		c4.6-10.3,10.6-22.4,16.9-34.8c12.3-3.1,28.8-6.2,40.7-6.2c2.9,0,2.9-1.3,2.2-3.3C488.6,104.2,483.7,100.7,472.7,101.1z"/>
	<path class="st0" d="M612.2,47.7c-1.8-5.5-6.8-11.9-11.7-16.1c-7-6.2-17.8-5.3-29.7-0.7c-24.6,9.5-63.8,49.3-62.9,95.9
		c0.4,18,9,31.7,18.9,37c11.9,6.4,30.4,6.6,46-4.6c9.2-6.6,23.3-23.1,17.8-37.8c-1.1-2.9-3.5-2.9-4.6-0.4
		c-16.7,32.8-40,47.5-54.1,36.1c-10.8-8.8-13-41.4,6.4-73.5c19.8-32.8,53.2-50.6,59.4-44c5.1,5.3-2.9,17.8-6.4,29.5
		c-3.3,11,0.2,17.8,5.3,21.1c2.6,1.8,4.2,0.4,4.8-1.3c2.4-6.4,5.5-15,8.8-21.8C613.5,60.2,614.2,54,612.2,47.7z"/>
</g>
<g>
	<g>
		<path class="st1" d="M22.3,162.1c-1.2,0-2.3-0.5-3.5-1.5c-6-5-6.8-14.1-2.5-26.9c6.7-19.6,29.3-61.8,48-92.3
			c-3.7-2.5-6.3-6.4-7.5-11.5c-0.4-1.6-0.2-3,0.6-4.1c1.3-1.7,3.5-1.7,4.2-1.7l0.1,0c1.1,0.1,2.3,0.1,3.5,0.1
			c9.6,0,20.3-1.7,29.9-3.2c8.1-1.3,15.1-2.4,20.4-2.4c9.8,0,16.8,4.4,20.3,12.8c0.9,2.5,0.2,4-0.3,4.8c-0.6,0.9-2,2-4.7,2
			c-0.4,0-0.8,0-1.2,0c-10.9,0-21.2,2-31.2,3.9c-4,0.8-7.7,1.5-11.4,2.1c-7.6,12.5-16.8,28.4-25.7,44.6c3.2-0.4,6.5-0.8,9.9-1
			c0.7,0,1.5-0.1,2.2-0.1c9.7,0,16.4,4.4,18.8,12.4c0.6,1.8,0.5,3.4-0.4,4.7c-0.9,1.2-2.4,1.9-4.4,1.9c-0.4,0-0.7,0-1.1,0
			c-12,0-29.6,3.9-37.7,5.8c-9.7,19-16.8,33.8-22.3,46.4C25.3,161.6,23.4,162.1,22.3,162.1z"/>
		<path d="M115.5,21.2c9.5,0,15.2,4.4,18,11.2c0.7,1.8,0.2,3.3-2.6,3.3c-0.4,0-0.8,0-1.2,0c-16,0-31,4.2-44.1,6.2
			c-7.7,12.5-18,30.4-28.8,50.2c5.7-1.1,10.8-1.5,14.7-1.8c0.7,0,1.4-0.1,2-0.1c9.6,0,14.6,4.4,16.4,10.6c0.7,2,0.2,3.3-2.4,3.3
			c-0.4,0-0.7,0-1.1,0c-11,0-27.3,3.2-39.4,6.2c-8.4,16.3-16.5,32.8-22.9,47.5c-0.5,1.2-1.1,1.8-1.9,1.8c-0.6,0-1.2-0.3-1.9-0.9
			c-4.2-3.5-6.4-10.6-1.8-24.2c6.6-19.4,29.7-62.5,49.1-93.9c-5.1-2.4-7.5-6.8-8.6-11.2c-0.4-1.8,0.2-2.6,2.4-2.6
			c1.2,0.1,2.4,0.1,3.6,0.1C82.8,26.7,104,21.2,115.5,21.2 M115.5,16.2c-5.5,0-12.6,1.1-20.8,2.4c-9.4,1.5-20.1,3.2-29.5,3.2
			c-1.2,0-2.3,0-3.4-0.1l-0.1,0h-0.1c-2.7,0-4.8,0.9-6.2,2.6c-0.9,1.2-1.8,3.2-1.1,6.2c1.2,4.8,3.5,8.6,6.7,11.5
			c-18.5,30.4-40.4,71.5-47,90.9c-4.7,13.9-3.6,23.9,3.3,29.6c1.6,1.4,3.3,2.1,5.1,2.1c1.4,0,4.7-0.5,6.5-4.8
			c5.3-12.3,12.2-26.7,21.7-45.1c8.4-2,24.8-5.5,36-5.5c0.3,0,0.6,0,1,0l0.1,0h0.1c3.6,0,5.5-1.6,6.4-2.9c0.9-1.3,1.8-3.6,0.7-6.9
			c-1.6-5.3-6.5-14.1-21.2-14.1c-0.8,0-1.5,0-2.3,0.1c-1.8,0.1-3.5,0.2-5.2,0.4c7.9-14.2,15.9-28,22.7-39.2
			c3.3-0.5,6.8-1.2,10.3-1.9c9.9-1.9,20-3.9,30.7-3.9c0.4,0,0.8,0,1.1,0l0,0h0c3.8,0,5.7-1.7,6.7-3.1c0.8-1.1,1.9-3.5,0.6-7l0-0.1
			l0-0.1C134.3,21.2,126.2,16.2,115.5,16.2L115.5,16.2z"/>
	</g>
	<g>
		<path class="st1" d="M195.4,161.6c-5.9,0-14.5-2-21.7-11.6c-7.1-9.4-8.3-22.5-3.5-37.4c-2.4,0.6-4.9,1-7.5,1.1
			c-2.6,9.4-7.2,19.3-12.8,27.3c-4.8,6.9-12.7,15.7-22.9,19c-2.9,1-5.8,1.5-8.7,1.5c-5.8,0-14.2-2-21.5-11.5
			c-9.5-12.4-8.3-32,3.1-52.3c7.8-13.6,21.7-28.6,37.2-29.9c0.9-0.1,1.8-0.1,2.6-0.1c6,0,10,2.4,14.3,8.4c1.1,1.6,2.4,2.9,3.6,4.2
			c4.1,4.2,8.3,8.6,7.4,21.6c0,0,0,0,0,0c7.6-2.5,14.5-9.4,19.1-15.1c9.3-11.6,19.9-18.3,29.9-19c0.7,0,1.3-0.1,2-0.1
			c6.3,0,10.5,2.3,14.9,8.3c1.1,1.5,2.4,2.8,3.6,4c4.3,4.4,8.4,8.6,7.5,21.8l0,0.1c-0.1,0.5-0.1,1.1-0.2,1.6c0,0.2,0,0.4-0.1,0.6
			c0.3,0,0.5-0.1,0.8-0.1c0.4-0.1,0.7-0.1,1.1-0.1c1.5,0,2.7,0.8,3.2,2c0.6,1.4,0.1,3.1-1.1,4.4c-1.4,1.6-3.5,2.7-6,3.2
			c-5.1,18.7-19,40.9-35.5,46.3C201.4,161.1,198.4,161.6,195.4,161.6C195.4,161.6,195.4,161.6,195.4,161.6z M207.3,91.9
			c-4.6,4.3-9.1,10.2-12.9,16.8c-9.4,16.5-11.1,35.2-7.1,38.7c0.7,0.6,1.5,0.9,2.5,0.9c5.3,0,15-7.1,23.5-22.8
			c2.9-5.2,5.3-10.5,7-15.5c-0.9-0.5-1.7-1.1-2.5-1.9C213.4,104.8,208.9,98.7,207.3,91.9z M130.3,91.9c-4.6,4.3-9.1,10.2-12.9,16.8
			c-9.3,16.1-11.7,35-7.2,38.6c0.7,0.5,1.5,0.8,2.6,0.8c5.4,0,15.1-7.1,23.6-22.7c3.4-6.4,5.7-11.6,7.2-15.9
			C137.8,105.8,132.1,99.4,130.3,91.9z M146.5,84.6c-0.3,0.5-0.8,1.4-1.1,3.1c-0.5,3.6,0,6.8,1.3,9.3c0.5-3.7,0.7-7.3,0.3-10.3
			C147,85.6,146.7,85,146.5,84.6z M223.6,84.8c-0.3,0.5-0.7,1.4-1,2.8c-0.6,3,0,6.2,1.2,8.8c0.6-4.3,0.5-7.5,0.2-9.6
			C224,85.8,223.8,85.2,223.6,84.8z"/>
		<path d="M139.7,70.3c5.2,0,8.5,2,12.3,7.4c5.1,7,11.7,8.4,10.6,24.2c0,1.1-0.2,2.2-0.2,3.3c8.8-1.3,17.2-8.6,23.8-16.7
			c8.1-10.1,18-17.4,28.2-18c0.6,0,1.2-0.1,1.8-0.1c5.5,0,8.9,2,12.9,7.3c5.3,7,11.7,8.4,10.6,24.2c-0.2,1.8-0.2,3.3-0.7,5.1
			c1.5,0,2.9,0,4.2-0.2c0.2-0.1,0.4-0.1,0.6-0.1c1.3,0,1.2,1.3,0.3,2.3c-1.3,1.5-3.5,2.4-6.2,2.6c-4.6,18.7-18.3,40.9-34.3,46.2
			c-2.4,0.8-5.2,1.3-8.1,1.3c-6.5,0-13.7-2.6-19.7-10.6c-7.9-10.6-7.3-25.3-1.3-40c-4.2,2-8.8,2.9-13.6,2.9
			c-4.6,18.9-18.3,41.1-34.5,46.4c-2.4,0.8-5.1,1.3-8,1.3c-6.4,0-13.4-2.6-19.5-10.6c-9.9-13-6.4-32.3,3.3-49.5
			c8.6-15,22-27.5,35.2-28.6C138.1,70.4,138.9,70.3,139.7,70.3 M225.3,102.8c1.5-6.8,1.8-12.3,1.3-16.3c-0.4-3.3-1.6-4.7-2.8-4.7
			c-1.4,0-3,2-3.6,5.4C219.1,93.1,221.7,99.5,225.3,102.8 M148.3,102.6c1.5-6.6,1.8-12.1,1.3-16.1c-0.4-3.2-1.6-4.7-3-4.7
			c-1.5,0-3.2,2-3.6,5.6C142.1,93.5,143.9,99.3,148.3,102.6 M189.8,150.7c6.7,0,17.1-8.2,25.7-24.1c3.5-6.4,6.2-12.5,7.9-18
			c-1.5-0.4-2.9-1.3-4-2.4c-5.1-3.5-10.3-11.2-10.3-19.1c-5.9,4.6-12.1,12.1-16.9,20.5c-9.5,16.5-12.1,37-6.6,41.8
			C186.8,150.2,188.2,150.7,189.8,150.7 M112.8,150.5c6.8,0,17.1-8,25.8-24c3.5-6.6,6.4-12.8,7.9-18.3c-7-3.7-14.3-12.1-14.3-21.3
			c-5.9,4.6-12.1,12.1-16.9,20.5c-9.5,16.5-12.8,37-6.6,41.8C109.8,150.1,111.2,150.5,112.8,150.5 M139.7,65.3L139.7,65.3
			c-0.9,0-1.9,0-2.9,0.2c-16.5,1.4-31,17-39.1,31.1c-5.4,9.6-8.7,19.4-9.6,28.3c-1,10.4,1.3,19.6,6.7,26.7
			c8,10.4,17.2,12.5,23.5,12.5c3.2,0,6.4-0.5,9.6-1.6c17.2-5.6,31.1-26.9,36.8-46.3c0.7-0.1,1.4-0.1,2-0.2c-3.6,14-1.9,26.4,5,35.6
			c7.8,10.4,17.2,12.6,23.7,12.6c3.2,0,6.5-0.5,9.6-1.6c10.7-3.5,19-12.8,24-19.9c5.5-7.9,10.1-17.4,12.8-26.7
			c2.4-0.7,4.4-1.9,5.8-3.6c2-2.1,2.6-4.8,1.6-7.1c-0.8-1.9-2.6-3.2-4.7-3.5c0.8-13.9-4-18.9-8.2-23.2c-1.2-1.2-2.3-2.4-3.4-3.8
			c-4.9-6.6-9.8-9.3-16.9-9.3c-0.7,0-1.4,0-2.2,0.1c-7.6,0.5-19.2,4.3-31.7,19.9c-4.9,6-9.8,10.4-14.5,12.8
			c-0.1-11.1-4.4-15.5-8.2-19.5c-1.2-1.3-2.4-2.5-3.4-3.9C151.3,68.1,146.5,65.3,139.7,65.3L139.7,65.3z M112.8,145.5
			c-0.7,0-1-0.2-1.1-0.3c-0.7-0.6-1.9-4.3-0.7-11.8c1.2-7.6,4.3-16.2,8.6-23.6c2.9-5,6.2-9.6,9.6-13.3c2.4,5.7,6.8,10.6,11.3,13.9
			c-1.4,3.8-3.5,8.3-6.4,13.7C125.7,139.8,116.7,145.5,112.8,145.5L112.8,145.5z M189.8,145.7c-0.6,0-0.8-0.2-0.9-0.2
			c-0.5-0.5-1.9-3.9-0.6-12.3c1.2-7.7,4.2-16.1,8.3-23.2c2.9-4.9,6.2-9.5,9.6-13.2c2.3,5.7,6.3,10.5,10.2,13.3
			c0.3,0.3,0.7,0.6,1.1,0.9c-1.6,4.3-3.7,8.8-6.2,13.3C202.6,139.8,193.6,145.7,189.8,145.7L189.8,145.7z"/>
	</g>
	<g>
		<path class="st1" d="M305.7,162.5c-0.4,0-0.8,0-1.1,0c-10.6-0.6-17.4-5.7-19.5-14.2c-5.9,6.3-15,13.5-25.5,13.5
			c-7.7,0-13.8-3.6-17.3-10.2c-6.3-11.8-2.7-31.2,8.9-48.1c12-17.6,31-36.5,48-36.5c4.5,0,8.4,1.5,11.1,4.4c1.4,1.5,2.6,3.3,3.3,5.3
			c11.7-22.1,26-47.3,33.2-57.5c1.6-2.2,3.3-3.3,5-3.3c1.2,0,3.3,0.5,4.6,3.8c0.6,1.5,1.1,3,1.4,4.6c1.3,0.1,2.7,0.1,4.1,0.1
			c10.8,0,25.1-2,37.6-3.7c10.2-1.4,19-2.6,24.5-2.6c0.4,0,0.8,0,1.1,0c12.4,0.3,19.9,4.5,23.1,12.8c0.7,1.8,0.6,3.5-0.3,4.8
			c-0.6,0.9-1.8,1.9-4.2,1.9c-0.2,0-0.4,0-0.7,0c-1.9-0.2-3.9-0.3-6-0.3c-8.7,0-18.9,1.5-28.7,3.2c-0.3,6.3-2.8,13.7-7.6,22.4
			c-2.6,4.7-5.3,9.6-8.3,14.8c-12,21.3-26.9,47.7-40.7,80c-1.1,2.7-2.8,3.3-4,3.3l0,0c-1.6,0-2.8-1-3.6-1.8
			c-1.7-1.6-7.4-8.2-3.5-22.4c4.7-16.8,26-60.6,46.6-92.9c-2.7,0.3-5.4,0.6-8.2,0.7c-0.6,0-1.2,0-1.8,0c-8.8,0-16-2.3-20.7-6.5
			c-1.4,4.9-3.8,10.5-7.4,16.8c-2.2,3.9-4.8,8.6-7.7,13.7c-11,19.5-26.2,46.3-34.9,64.7c-4.5,9.6-4.7,15.1-3.6,16.9
			c0.2,0.3,0.6,0.9,2.1,0.9c0.1,0,0.2,0,0.4,0c7-0.3,18.2-12.5,26.5-29c1.4-2.5,3.2-2.9,4.1-2.9c1.6,0,3,1,3.9,2.7l0,0.1
			c1.3,3,1.2,9.6-1.8,15.7C330.8,153.9,315.8,162.5,305.7,162.5z M302.5,83.3c-2,0-6.9,2.3-13.8,8.6c-6.7,6.2-13.4,14.4-18.9,23.2
			c-9.2,14.6-12.1,28.6-9.6,33.2c0.4,0.8,1,1.2,1.9,1.2l0.2,0c7.5,0,18.7-12.3,28.6-31.4C305.7,89.6,303.4,84,303,83.5
			C303,83.3,302.9,83.3,302.5,83.3L302.5,83.3z"/>
		<path d="M351.9,18.5c0.9,0,1.7,0.8,2.3,2.2c0.8,1.9,1.3,3.9,1.5,6.2c0.1,0,0.3,0,0.4,0c0.1,0,0.3,0,0.5,0c1.7,0.1,3.5,0.2,5.4,0.2
			c19.7,0,49.9-6.4,62.2-6.4c0.4,0,0.7,0,1,0c9.2,0.2,17.6,2.6,20.9,11.2c0.6,1.7,0.3,3.3-2.2,3.3c-0.1,0-0.3,0-0.5,0
			c-2-0.2-4.1-0.3-6.2-0.3c-9.6,0-20.8,1.8-31.2,3.6c0.2,5.3-1.3,12.5-7.3,23.3c-13.2,24-31.9,54.8-49.1,95c-0.5,1.2-1,1.7-1.7,1.7
			c-0.5,0-1.2-0.4-1.9-1.1c-3.1-2.9-5.7-9.5-2.9-20c5.1-18,28.8-65.8,49.3-96.8c-5.1,0.9-9.5,1.3-13.4,1.5c-0.6,0-1.1,0-1.6,0
			c-10.6,0-18.6-3.5-22.1-9.5c-0.8,5.5-3.3,12.3-8.2,21.1c-10.6,18.9-31.7,55.2-42.7,78.5c-5.8,12.5-6.1,21.4,0.8,21.4
			c0.2,0,0.3,0,0.5,0c9-0.4,20.9-15.2,28.6-30.4c0.6-1,1.2-1.5,1.9-1.5c0.6,0,1.2,0.4,1.6,1.3c0.9,2,1.1,7.7-1.8,13.6
			c-5.8,11.8-18.8,23.1-30.7,23.1c-0.3,0-0.7,0-1,0c-11.9-0.7-17.8-7.3-17.8-17.6c-7,8.8-16.9,16.9-27.3,16.9
			c-20.5,0-24.4-27.9-6.4-54.3c17.4-25.5,35-35.4,46-35.4c9,0,13.4,6.8,13.2,15c11.9-22.7,28.6-52.6,36.5-63.8
			C350,19.2,351,18.5,351.9,18.5 M262.2,152.1c8.8,0,20.5-12.9,30.8-32.8c12.8-24.4,16.1-38.3,9.7-38.5c-0.1,0-0.1,0-0.2,0
			c-6.9,0-22.8,13.8-34.8,33c-11.9,18.9-14.3,38.1-5.7,38.3C262.1,152.1,262.1,152.1,262.2,152.1 M351.9,13.5l0,5L351.9,13.5
			c-2.6,0-5,1.5-7.1,4.3c-6.8,9.6-19.9,32.6-31.2,53.7c-0.5-0.6-1-1.2-1.5-1.8c-3.3-3.4-7.7-5.1-12.9-5.1c-5.7,0-26.3,2.7-50.1,37.6
			c-12.2,17.9-15.8,37.8-9,50.6c3.9,7.4,10.9,11.5,19.5,11.5c9.7,0,18.2-5.6,24.4-11.5c3.3,7.2,10.5,11.6,20.4,12.1
			c0.4,0,0.8,0,1.3,0c12.2,0,24.3-9.3,31.5-19.8c-0.2,6.7,1.8,12.3,5.6,15.9c0.7,0.7,2.6,2.5,5.3,2.5c1.3,0,4.5-0.5,6.3-4.8
			c13.7-32.2,28.6-58.6,40.5-79.7c2.9-5.2,5.7-10.1,8.3-14.8c4.5-8.2,7-15.2,7.7-21.5c9.1-1.5,18.4-2.8,26.3-2.8
			c2.1,0,4,0.1,5.7,0.3l0.1,0l0.1,0c0.3,0,0.6,0,0.8,0c3.6,0,5.5-1.9,6.2-3c1.4-2,1.6-4.5,0.6-7.1c-3.6-9.3-12.1-14.1-25.4-14.5
			c-0.4,0-0.8,0-1.2,0c-5.7,0-14.6,1.2-24.9,2.7c-12.5,1.7-26.6,3.7-37.3,3.7c-0.7,0-1.4,0-2.1,0c-0.3-1.1-0.7-2.1-1.1-3.2
			C356.9,14,353.4,13.5,351.9,13.5L351.9,13.5z M305.4,148.8c-0.3-1.3-0.2-5.7,3.8-14.2c8.6-18.3,23.7-45,34.8-64.5
			c2.9-5,5.5-9.8,7.7-13.7c2.8-5.1,5-9.7,6.5-13.9c5,3.2,11.7,4.9,19.4,4.9c0.6,0,1.2,0,1.8,0l0.1,0l0.1,0c1.1-0.1,2.1-0.1,3.2-0.2
			c-14.8,23.9-31,55.3-39.4,76c-0.2-0.7-0.4-1.3-0.6-1.8l0-0.1l-0.1-0.1c-1.3-2.5-3.5-4.1-6.1-4.1c-2.5,0-4.8,1.5-6.3,4.1l0,0.1
			l0,0.1c-8.6,17-19.2,27.4-24.4,27.6C305.6,148.8,305.6,148.8,305.4,148.8C305.5,148.8,305.4,148.8,305.4,148.8L305.4,148.8z
			 M262.3,147.1c-1.4-2.6,0-15.3,9.6-30.6c11.1-17.7,23.6-28,28.9-30.2c-0.3,3.2-2.2,11.6-12.2,30.7
			C278,137.5,267.6,146.9,262.3,147.1L262.3,147.1z M305.1,148.8L305.1,148.8L305.1,148.8L305.1,148.8z"/>
	</g>
	<g>
		<path class="st1" d="M421.9,163.4c-2.8,0-5.1-1.2-7.2-3.7c-1.5-1.7-2.6-3.9-3.7-6.1c-0.4-0.8-0.8-1.7-1.2-2.4
			c-2.4-4.5-2.4-8,0.1-14.6c10.4-27.8,32.4-68.1,49.3-94.7c-3.9-2.4-6.5-6.2-8-11.5l0-0.1c-0.4-1.7-0.2-3.2,0.7-4.2
			c0.6-0.7,1.6-1.5,3.6-1.5c0.3,0,0.6,0,0.9,0c1.3,0.1,2.7,0.1,4.2,0.1c9.8,0,21-1.7,30.8-3.3c7.7-1.2,14.4-2.3,19.5-2.3
			c0.3,0,0.5,0,0.8,0c9.4,0,15.2,4,18.3,12.4c0.6,1.7,0.5,3.4-0.3,4.6c-0.4,0.6-1.5,1.7-3.6,1.7c-0.3,0-0.7,0-1-0.1
			c-0.4,0-0.7,0-1.1,0c-11.3,0-22.2,2.1-32.7,4.1c-3.2,0.6-6.2,1.2-9.2,1.7c-8.1,12.3-17.7,29.3-27.2,46.4c3.3-0.4,6.9-0.8,10.8-1
			c0.7,0,1.3,0,1.9,0c10.1,0,16.1,3.7,18.6,11.7c0.3,0.9,1,3.1-0.2,4.8c-1.3,1.8-3.6,1.8-4.3,1.8c-13.8,0-32.2,4.1-39,5.8
			c-5.4,10.4-10.2,20.2-14.1,28.7c9.4-2.6,21.3-5,29.4-5.4c0.7,0,1.3,0,1.9,0c10.2,0,16.5,3.7,19.3,11.4c0.3,0.8,1,3.1-0.3,4.9
			c-0.9,1.2-2.3,1.8-4.3,1.8c-0.3,0-0.5,0-0.7,0c-10.8,0-31.5,4.5-47.3,8.7C424.6,163.1,423.2,163.4,421.9,163.4z"/>
		<path d="M511.6,21.4c8.7,0,13.4,3.7,16,10.8c0.6,1.6,0.3,2.9-1.6,2.9c-0.3,0-0.5,0-0.8-0.1c-0.4,0-0.8,0-1.3,0
			c-15.4,0-30.3,3.8-43.4,5.9c-8.8,13.2-19.6,32.3-30.4,51.9c5.9-1.1,11.7-1.5,15.6-1.8c0.6,0,1.2,0,1.8,0c9.7,0,14.2,3.5,16.3,9.9
			c0.7,2,0.7,3.3-2.2,3.3c-11.9,0-28.4,3.1-40.7,6.2c-6.4,12.3-12.3,24.4-16.9,34.8c10.6-3.3,25.1-6.4,34.1-6.8c0.6,0,1.2,0,1.8,0
			c9.6,0,14.7,3.5,16.9,9.7c0.7,2,0.4,3.3-2.2,3.3c-0.2,0-0.5,0-0.7,0c-12.5,0-35.8,5.6-47.9,8.8c-1.5,0.4-2.8,0.7-4,0.7
			c-2,0-3.6-0.8-5.3-2.9c-1.8-2-3.1-5.3-4.6-8.1c-2-3.7-2-6.6,0.2-12.5c10.1-27.1,32.1-68,50.6-96.6c-5.5-2.2-7.9-6.6-9.2-11.2
			c-0.4-1.8,0.1-2.7,1.8-2.7c0.2,0,0.4,0,0.6,0c1.4,0.1,2.9,0.1,4.4,0.1c17.6,0,39-5.4,50.3-5.6C511.1,21.4,511.3,21.4,511.6,21.4
			 M511.6,16.4L511.6,16.4c-0.3,0-0.6,0-0.9,0c-5.2,0.1-12,1.2-19.8,2.4c-9.7,1.5-20.8,3.3-30.4,3.3c-1.4,0-2.8,0-4.1-0.1
			c-0.3,0-0.7,0-1,0c-2.9,0-4.6,1.3-5.5,2.4c-0.9,1.1-1.9,3.2-1.2,6.3l0,0.1l0,0.1c1.4,5,3.8,8.8,7.1,11.5
			c-16.9,26.7-38.1,65.9-48.3,93.2c-2.3,6.2-3,10.9,0,16.6c0.4,0.8,0.8,1.6,1.2,2.4c1.1,2.3,2.3,4.7,4,6.6c2.5,3.1,5.5,4.6,9.1,4.6
			c1.9,0,3.7-0.4,5.3-0.8c15.6-4.2,36-8.6,46.6-8.6c0.2,0,0.4,0,0.6,0l0,0h0c3.5,0,5.4-1.5,6.3-2.8c1.4-1.9,1.6-4.3,0.6-7.1l0-0.1
			l0-0.1c-3.2-8.6-10.4-13-21.6-13c-0.6,0-1.3,0-2,0c-7.2,0.3-16.5,2.1-24.8,4.1c3.3-7,7.1-14.7,11.3-22.8
			c14.3-3.4,28.1-5.5,37.3-5.5c2.9,0,5-0.9,6.4-2.8c2-2.8,1-5.9,0.6-7.1c-2.9-9-9.8-13.4-21-13.4c-0.6,0-1.3,0-2,0l0,0l0,0
			c-2.1,0.1-4.2,0.3-6.1,0.5c8.4-15.2,16.9-30,24.1-41.1c2.7-0.5,5.3-1,8.2-1.5c10.4-2,21.2-4,32.2-4c0.3,0,0.6,0,0.9,0
			c0.4,0.1,0.8,0.1,1.2,0.1c3.3,0,5-1.8,5.7-2.8c1.3-1.9,1.5-4.3,0.6-6.9C528.8,21,522,16.4,511.6,16.4L511.6,16.4z"/>
	</g>
	<g>
		<path class="st1" d="M538.4,160.7c-7.2,0-14-1.6-19.7-4.7c-11.9-6.3-19.8-21.7-20.2-39.1c-0.5-27.2,11.9-49.5,22.4-63.5
			c12.2-16.2,28.3-29.5,42.1-34.8c6.6-2.6,12.6-3.9,17.7-3.9c5.9,0,10.7,1.7,14.5,5c4.4,3.8,10.3,10.6,12.4,17.2
			c2.2,7,1.5,13.7-2.1,21.2c-2.7,5.6-5.4,12.7-7.5,18.4c-0.4,1.1-0.8,2.2-1.2,3.2c-0.9,2.4-2.7,3.8-4.9,3.8l0,0
			c-1.2,0-2.4-0.4-3.7-1.3c-3.4-2.2-10.8-9-6.3-23.9c1-3.5,2.4-6.9,3.8-10.3c2.8-7,5.7-14.2,3.2-16.8c-0.4-0.4-1.2-0.6-2.2-0.6
			c-9.3,0-35.7,15.2-53.2,44.2c-18.7,31.1-16.6,62.4-6.9,70.3c2.7,2.2,5.8,3.3,9.2,3.3c0,0,0,0,0,0c13,0,29.1-15.1,41.1-38.5
			c0.9-2,2.6-3.2,4.4-3.2c2.1,0,3.8,1.4,4.8,3.8c2.7,7.2,1.5,15.6-3.6,24.1c-3.7,6.3-9.3,12.5-15.1,16.6
			C558.6,157.4,548.6,160.7,538.4,160.7z"/>
		<path d="M580.7,17.2c5,0,9.4,1.3,12.9,4.4c4.8,4.2,9.9,10.6,11.7,16.1c2,6.4,1.3,12.5-2,19.4c-3.3,6.8-6.4,15.4-8.8,21.8
			c-0.4,1.2-1.3,2.2-2.6,2.2c-0.6,0-1.4-0.2-2.3-0.8c-5.1-3.3-8.6-10.1-5.3-21.1c3.5-11.7,11.4-24.2,6.4-29.5
			c-0.9-0.9-2.2-1.4-4-1.4c-11.2,0-38.3,17.1-55.4,45.4c-19.4,32.1-17.2,64.7-6.4,73.5c3.2,2.6,6.9,3.8,10.8,3.8
			c13.5,0,30.4-14.6,43.3-39.9c0.5-1.2,1.4-1.8,2.2-1.8c0.9,0,1.8,0.7,2.4,2.2c5.5,14.7-8.6,31.2-17.8,37.8c-8.8,6.3-18.5,9-27.4,9
			c-6.9,0-13.3-1.6-18.5-4.4c-9.9-5.3-18.5-18.9-18.9-37c-0.9-46.6,38.3-86.5,62.9-95.9C569.8,18.6,575.6,17.2,580.7,17.2
			 M580.7,12.2c-5.4,0-11.7,1.4-18.6,4.1c-14.2,5.5-30.8,19.1-43.2,35.7c-10.7,14.3-23.4,37.1-22.9,65c0.4,18.3,8.9,34.5,21.6,41.3
			c6.1,3.3,13.3,5,20.9,5c10.8,0,21.3-3.4,30.4-10c6.1-4.3,12-10.8,15.8-17.4c5.4-9.2,6.7-18.3,3.8-26.3c-1.3-3.4-4-5.5-7.1-5.5
			c-2.8,0-5.4,1.7-6.7,4.6c-6,11.7-13,21.3-20.3,28c-6.5,5.9-13.1,9.2-18.5,9.2c-2.9,0-5.4-0.9-7.7-2.7c-3.2-2.6-6.8-10.5-6.3-23.9
			c0.6-14,5.4-29.3,13.8-43.1c16.8-27.8,42.5-42.9,51.1-42.9c0.2,0,0.4,0,0.5,0c0.2,0.4,0.2,1.5-0.2,3.3c-0.6,2.9-2.1,6.6-3.7,10.5
			c-1.4,3.4-2.8,6.9-3.9,10.5c-3.4,11.5-0.7,21.5,7.3,26.7c1.7,1.1,3.3,1.7,5,1.7c3.2,0,6-2.1,7.2-5.4c0.4-1,0.8-2.1,1.2-3.2
			c2.2-5.9,4.7-12.6,7.4-18.2c3.9-8,4.6-15.5,2.3-23c-2.3-7.1-8.5-14.3-13.2-18.4C592.6,14.1,587.1,12.2,580.7,12.2L580.7,12.2z"/>
	</g>
</g>
<g>
	<path d="M38,112c0,0,12,4,13,2l-3-4L38,112z"/>
	<path d="M400,39.4c0,0,3,5,10,3l-3-4L400,39.4z"/>
	<path d="M480.5,40.9l-10,2c0,0,6,4,11,3L480.5,40.9z"/>
	<path d="M446.5,98.5c0,0,5-7,9-7l-3.8-1.5L446.5,98.5z"/>
	<path d="M154,110c-4,1-8-2-8-2v1C150,112,158,109,154,110z"/>
	<path d="M230.1,108.4c-3.8,1.6-8.2-0.7-8.2-0.7l0.2,1C226.5,111.1,233.9,106.8,230.1,108.4z"/>
	<path d="M55,95c0,0,2-3.3,5.5-3.6L57.3,91L55,95z"/>
	<path d="M434,112c0,0,5,3,9,2l-1.1-3.8L434,112z"/>
</g>
<g>
	<g>
		<g>
			<g>
				<path class="st2" d="M86,100c-0.2,0.1-0.6,0-1.2-0.3c-0.3-0.2-0.6-0.4-1-0.7c-0.4-0.2-0.9-0.5-1.4-0.8c-2-1.1-4.9-2.2-8.3-2.6
					c-3.5-0.4-6.7-0.4-9.1-0.3c-2.4,0.1-3.9,0.1-4-0.3c-0.1-0.4,1.2-1.3,3.7-1.9c2.4-0.7,5.9-1.2,9.9-0.7c3.9,0.5,7.4,2.2,9.3,4
					c0.5,0.5,0.9,0.9,1.2,1.3c0.3,0.4,0.5,0.8,0.7,1.1C86.1,99.5,86.2,99.9,86,100z"/>
			</g>
		</g>
	</g>
	<g>
		<g>
			<g>
				<path class="st2" d="M157,112c0.2,0.1,0.2,0.8-0.1,2.1c-0.1,0.6-0.4,1.4-0.6,2.3c-0.1,0.5-0.3,0.9-0.4,1.4
					c-0.2,0.5-0.4,1-0.6,1.6c-0.4,1.1-0.9,2.3-1.4,3.6c-0.6,1.3-1.2,2.6-1.9,4c-1.4,2.8-3.2,5.8-5.3,8.8c-4.2,6-8.9,10.7-12.8,13.5
					c-3.8,2.9-6.7,4-6.9,3.5c-0.2-0.4,2.1-2.1,5.4-5.3c3.3-3.2,7.6-7.9,11.6-13.6C152,122.6,156,111.6,157,112z"/>
			</g>
		</g>
	</g>
	<g>
		<g>
			<g>
				<path class="st2" d="M234,112c0.2,0.1,0.2,0.9-0.1,2.2c-0.3,1.4-0.8,3.4-1.7,5.7c-1.7,4.7-4.9,11-9.5,17.1
					c-2.3,3.1-4.7,5.8-7,8.2c-2.4,2.3-4.6,4.3-6.6,5.8c-3.9,3.1-6.8,4.4-7,4.1c-0.3-0.4,2.1-2.4,5.5-5.8c1.8-1.7,3.7-3.8,5.9-6.1
					c2.1-2.4,4.4-5.1,6.6-8c4.5-5.9,7.8-11.7,10-16c1.2-2.1,2-4,2.6-5.2C233.3,112.6,233.8,111.9,234,112z"/>
			</g>
		</g>
	</g>
	<g>
		<g>
			<g>
				<path class="st2" d="M237,104c-1-0.1-1-5.1-2.9-10.6c-1-2.7-2.3-5-3.4-6.5c-1.1-1.6-1.9-2.5-1.7-2.9c0.2-0.4,1.6-0.1,3.4,1.3
					c1.7,1.3,3.7,3.9,4.8,7c1.1,3.2,1.3,6.2,1,8.3C237.9,102.8,237.4,104,237,104z"/>
			</g>
		</g>
	</g>
	<g>
		<g>
			<g>
				<path class="st2" d="M159,104c-1-0.3-0.2-4.3-1.2-8.7c-0.9-4.5-3.3-7.6-2.8-8.3c0.3-0.3,1.4,0.1,2.7,1.4
					c1.3,1.3,2.6,3.5,3.2,6.2c0.6,2.7,0.3,5.3-0.3,7c-0.2,0.9-0.6,1.5-0.9,1.9C159.5,103.9,159.2,104.1,159,104z"/>
			</g>
		</g>
	</g>
	<g>
		<g>
			<g>
				<path class="st2" d="M335,134c0.2,0.1,0.2,0.6,0.1,1.3c-0.1,0.4-0.2,0.9-0.4,1.4c-0.2,0.5-0.5,1.1-0.8,1.8
					c-1.3,2.6-3.6,5.8-6.7,8.7c-6.3,5.9-12.8,8.6-13.2,7.8c-0.5-0.8,5-4.7,10.9-10.2c3-2.8,5.4-5.5,7-7.5c0.4-0.5,0.8-1,1.1-1.4
					c0.3-0.4,0.6-0.8,0.8-1.1C334.4,134.2,334.8,133.9,335,134z"/>
			</g>
		</g>
	</g>
	<g>
		<g>
			<g>
				<path class="st2" d="M350,35c0.1,0,0.3,0.2,0.5,0.9c0.1,0.6,0.1,1.6-0.1,2.7c-0.4,2.3-1.4,5.4-2.9,9.1
					c-3.1,7.4-8.2,17.2-14.3,27.7c-6.1,10.5-12,19.8-16.4,26.4c-4.4,6.6-7.4,10.5-7.8,10.3c-0.8-0.5,9.2-17.4,21.4-38.3
					c6.1-10.5,11.4-20,15-27c1.8-3.5,3.1-6.4,3.8-8.4c0.4-1,0.6-1.8,0.7-2.4C349.9,35.3,349.9,35.1,350,35z"/>
			</g>
		</g>
	</g>
	<g>
		<g>
			<g>
				<path class="st2" d="M400,46c0.2-0.1,0.6,0.4,0.8,1.5c0.1,1.1,0,2.6-0.4,4.4c-0.9,3.5-2.9,8-5.6,12.7
					c-5.4,9.3-11,15.9-11.7,15.4c-0.8-0.5,3.7-7.9,8.9-17c2.6-4.6,4.9-8.7,6.2-11.8c0.7-1.5,1.1-2.8,1.4-3.7
					C399.7,46.6,399.8,46.1,400,46z"/>
			</g>
		</g>
	</g>
	<g>
		<g>
			<g>
				<path class="st2" d="M443,31c-0.7,0.7-4.2-2.3-9.3-4.2c-5-2-9.6-1.9-9.7-2.8c-0.1-0.4,1.1-1.1,3.1-1.3c2-0.3,4.9,0,7.8,1.1
					c2.9,1.1,5.2,2.8,6.5,4.3c0.7,0.7,1.1,1.4,1.4,1.9C443.1,30.5,443.2,30.8,443,31z"/>
			</g>
		</g>
	</g>
	<g>
		<g>
			<g>
				<path class="st2" d="M521,31c-0.2,0.2-0.6,0-1.4-0.1c-0.8-0.1-2,0-3.5,0.1c-3,0.3-7.2,1-11.9,1.8c-9.3,1.7-17,3-17.2,2.2
					c-0.2-0.9,7.1-3.6,16.7-5.4c4.8-0.8,9.2-1.2,12.5-0.9c1.6,0.2,3,0.5,3.9,1C520.9,30.3,521.2,30.9,521,31z"/>
			</g>
		</g>
	</g>
	<g>
		<g>
			<g>
				<path class="st2" d="M481,101c-0.8,0.6-3.7-2.5-8.2-4.3c-4.5-1.9-8.7-1.8-8.8-2.7c-0.1-0.4,1-1.1,2.8-1.3c0.9-0.1,2.1-0.1,3.3,0
					c1.2,0.2,2.6,0.4,3.9,1c2.7,1.1,4.7,2.9,5.8,4.4c0.6,0.7,0.9,1.4,1.1,1.9C481.2,100.5,481.2,100.9,481,101z"/>
			</g>
		</g>
	</g>
	<g>
		<g>
			<g>
				<path class="st2" d="M470,149c-0.1,0-0.2-0.2-0.2-0.5c0-0.3,0-0.6,0-1c-0.1-0.8-0.4-1.6-1.6-2.2c-1.2-0.6-3-1-5.1-1.1
					c-2.1-0.2-4.4-0.2-6.9-0.2c-4.9,0.1-9.5,0.3-12.7,0.4c-3.3,0.1-5.4,0-5.4-0.4c-0.1-0.4,1.9-1.2,5.2-1.9c3.3-0.7,7.8-1.3,13-1.4
					c2.6,0,5,0.1,7.3,0.5c2.2,0.4,4.3,1,5.9,2.2c0.8,0.6,1.5,1.4,1.7,2.2c0.2,0.4,0.2,0.8,0.2,1.2c0,0.4-0.1,0.7-0.2,0.9
					c-0.1,0.5-0.4,0.8-0.6,1C470.2,149,470.1,149,470,149z"/>
			</g>
		</g>
	</g>
	<g>
		<g>
			<g>
				<path class="st2" d="M591,76c-0.4-0.2,0.3-2.5,1.7-5.9c1.2-3.5,3.2-8.2,4.8-13.5c1.6-5.3,2.3-10.3,2.2-13.8c0-3.6-1-5.5-0.7-5.8
					c0.2-0.2,0.8,0.2,1.4,1.1c0.6,0.9,1.3,2.5,1.6,4.4c0.8,3.9,0.3,9.4-1.4,15c-1.6,5.6-4,10.3-5.8,13.6
					C592.8,74.3,591.4,76.2,591,76z"/>
			</g>
		</g>
	</g>
	<g>
		<g>
			<g>
				<path class="st2" d="M582,118c0.4,0,0.8,2.7-0.5,6.9c-1.2,4.1-4.2,9.4-8.6,14c-4.4,4.7-9.1,8.2-12.6,10.4
					c-3.6,2.2-6,3.1-6.2,2.7c-0.2-0.4,1.8-2,4.9-4.6c3.1-2.6,7.4-6.2,11.6-10.7c4.2-4.5,7.2-9.1,8.9-12.7
					C581,120.4,581.5,117.9,582,118z"/>
			</g>
		</g>
	</g>
	<g>
		<g>
			<g>
				<path class="st2" d="M127,33c-0.5,0.1-0.8-1.8-2.6-3.4c-0.9-0.8-2.1-1.5-3.7-2c-1.6-0.5-3.5-0.8-5.5-0.9
					c-4.1-0.3-7.9-0.1-10.6,0c-2.8,0.1-4.5,0.1-4.6-0.4c-0.1-0.4,1.5-1.2,4.3-1.9c2.8-0.7,6.7-1.3,11.2-0.9c2.2,0.2,4.4,0.6,6.3,1.4
					c1.9,0.8,3.5,1.9,4.4,3.3c1,1.3,1.2,2.7,1.2,3.5C127.4,32.5,127.2,33,127,33z"/>
			</g>
		</g>
	</g>
</g>
</svg>
