<svg width="89px" height="119px" viewBox="0 0 89 119" version="1.1" xmlns="http://www.w3.org/2000/svg" xmlns:xlink="http://www.w3.org/1999/xlink">
    <desc>Created with Sketch.</desc>
    <defs>
        <filter x="-8.6%" y="-4.5%" width="117.3%" height="113.5%" filterUnits="objectBoundingBox" id="filter-1">
            <feOffset dx="0" dy="2" in="SourceAlpha" result="shadowOffsetOuter1"></feOffset>
            <feGaussianBlur stdDeviation="2" in="shadowOffsetOuter1" result="shadowBlurOuter1"></feGaussianBlur>
            <feColorMatrix values="0 0 0 0 0   0 0 0 0 0   0 0 0 0 0  0 0 0 0.5 0" type="matrix" in="shadowBlurOuter1" result="shadowMatrixOuter1"></feColorMatrix>
            <feMerge>
                <feMergeNode in="shadowMatrixOuter1"></feMergeNode>
                <feMergeNode in="SourceGraphic"></feMergeNode>
            </feMerge>
        </filter>
    </defs>
    <g id="Page-1" stroke="none" stroke-width="1" fill="none" fill-rule="evenodd">
        <g id="iPhone-SE" transform="translate(-116.000000, -131.000000)" fill-rule="nonzero" fill="#0F74F8">
            <g id="noun_1155405_cc" filter="url(#filter-1)" transform="translate(120.000000, 133.000000)">
                <path d="M39,20 C26.8497355,20 17,30.5213084 17,43.5 C17,56.4786916 26.8497355,67 39,67 C51.1502645,67 61,56.4786916 61,43.5 C60.9850534,30.5279273 51.144068,20.0159656 39,20 Z M38.9999971,59.5789474 C29.5516133,59.5789442 21.8914647,51.8292782 21.8888895,42.2678774 C21.8863143,32.7064766 29.5422873,24.9525862 38.9906697,24.9473711 C48.4390522,24.9421559 56.1033792,32.6875899 56.1111111,42.2489879 C56.1034037,51.8112972 48.4492689,59.5633259 38.9999971,59.5789474 Z" id="Shape"></path>
                <path d="M40.5039877,5.03127352e-15 C26.6299721,0.00230387158 13.7221342,7.10803974 6.29451203,18.8322397 C-1.13311011,30.5564397 -2.04726841,45.2681637 3.87173013,57.8225313 C4.67792957,59.4675455 5.60032051,61.0529626 6.63188864,62.5667262 L37.9986131,109.583822 C38.5355893,110.447662 39.4732503,110.980692 40.4898331,111 L40.4898331,111 C41.4971571,110.99845 42.4371602,110.493675 42.9952077,109.654631 L74.1354576,62.9207706 C75.3325124,61.1787518 76.392579,59.3463766 77.3061012,57.4401633 C83.0623883,44.8942194 82.0404969,30.2796539 74.5943288,18.6577913 C67.1481608,7.0359287 54.3017181,0.00501495056 40.5039877,5.03127352e-15 Z M72.1821146,55.0609849 C71.3920549,56.6862587 70.478769,58.2486209 69.4502654,59.734371 L40.5039877,103.1827 L11.3453901,59.4652973 C10.4664082,58.1682088 9.68118431,56.8099404 8.9957167,55.4008676 C2.10720582,40.7921779 6.14960681,23.3624378 18.7642537,13.2815772 C31.3789006,3.20071664 49.2624989,3.10852812 61.9803009,13.0588019 C74.698103,23.0090758 78.9198019,40.3962151 72.1821146,55.0751467 L72.1821146,55.0609849 Z" id="Shape"></path>
            </g>
        </g>
    </g>
</svg>