<svg xmlns:dc="http://purl.org/dc/elements/1.1/" xmlns:cc="http://creativecommons.org/ns#" xmlns:rdf="http://www.w3.org/1999/02/22-rdf-syntax-ns#" xmlns:svg="http://www.w3.org/2000/svg" xmlns="http://www.w3.org/2000/svg" xmlns:sodipodi="http://sodipodi.sourceforge.net/DTD/sodipodi-0.dtd" xmlns:inkscape="http://www.inkscape.org/namespaces/inkscape" version="1.1" x="0px" y="0px" viewBox="0 0 100 125"><g transform="translate(0,-952.36218)"><path style="text-indent:0;text-transform:none;direction:ltr;block-progression:tb;baseline-shift:baseline;color:#000000;enable-background:accumulate;" d="m 50.374998,958.43751 40.000001,16 c 0.36985,0.1496 0.62914,0.5386 0.625,0.9375 l 0,53.99999 c -0.008,0.3885 -0.26475,0.7606 -0.625,0.9062 l -40.000001,16 c -0.23757,0.096 -0.51244,0.096 -0.75,0 l -39.9999995,-16 c -0.36025,-0.1456 -0.61687,-0.5177 -0.625,-0.9062 l 0,-53.99999 c -0.004,-0.3989 0.25515,-0.7879 0.625,-0.9375 l 39.9999995,-16 c 0.34445,-0.1347 0.58829,-0.027 0.75,0 z m -0.375,2 -37.3125,14.9375 14.125,5.62498 35.21875,-15.74998 z m 20.96875,8.375 -36.375,15.31248 15.40625,6.1562 37.3125,-14.93738 z m 18.03125,8.0313 -38,15.18738 0,51.84381 38,-15.1875 z m -78,0 0,51.84369 38,15.1875 0,-51.84381 -15,-6 0,16.34381 -8,-3.00001 0,-16.5312 z" fill="#000000" fill-opacity="1" stroke="none" marker="none" visibility="visible" display="inline" overflow="visible"/></g>

</svg>